<svg  id="tofukozu" x="0px" y="0px" width="318.2px"
     height="333px" viewBox="0 0 318.2 333" style="overflow:visible;enable-background:new 0 0 318.2 333;" xml:space="preserve">
  <style type="text/css">
    .st0{fill:#363030;}
    .st1{fill:#49443B;}
    .st2{fill:#E8E6DF;}
    .st3{fill:#EAE7E0;}
    .st4{fill:#D6CDAE;}
    .st5{fill:#403A3A;}
    .st6{fill:#FEFEFE;}
    .st7{fill:#C4B688;}
    .st8{fill:#C5B789;}
    .st9{fill:#5E9B93;}
    .st10{fill:#C4B689;}
    .st11{fill:#AD6547;}
    .st12{fill:#CABD96;}
    .st13{fill:#C8BA8F;}
    .st14{fill:#CABC94;}
    .st15{fill:#C7B98F;}
    .st16{fill:#C7B98E;}
    .st17{fill:#CFC39E;}
    .st18{fill:#DAD0B3;}
    .st19{fill:#CCBF99;}
    .st20{fill:#D2C7A5;}
    .st21{fill:#F3F0E8;}
    .st22{fill:#E7E2D1;}
    .st23{fill:#EFEBDF;}
    .st24{fill:#C8BB92;}
    .st25{fill:#D6CDAD;}
    .st26{fill:#F6F5EF;}
    .st27{fill:#CBBE97;}
    .st28{fill:#D6CCAC;}
    .st29{fill:#C9BB92;}
    .st30{fill:#CDC19C;}
    .st31{fill:#F7F6F1;}
    .st32{fill:#DAD2B6;}
    .st33{fill:#C8BB91;}
    .st34{fill:#E9E5D7;}
    .st35{fill:#C7BA91;}
    .st36{fill:#EBE6D8;}
    .st37{fill:#383231;}
    .st38{fill:#CDC19D;}
    .st39{fill:#D4CBAC;}
    .st40{fill:#E2DDCE;}
    .st41{fill:#C8BA92;}
    .st42{fill:#C7BA92;}
    .st43{fill:#CEC29E;}
    .st44{fill:#CEC3A0;}
    .st45{fill:#CBBF9A;}
    .st46{fill:#C7BD9F;}
    .st47{fill:#CABF9E;}
    .st48{fill:#C7BD9E;}
    .st49{fill:#D6CDAF;}
    .st50{fill:#D7D2C2;}
    .st51{fill:#D0C8B0;}
    .st52{fill:#D9D2BE;}
    .st53{fill:#E3DECE;}
    .st54{fill:#48413C;}
    .st55{fill:#DCD3B8;}
    .st56{fill:#CFC7B2;}
    .st57{fill:#D6CEB7;}
    .st58{fill:#C8BFA7;}
    .st59{fill:#A5997B;}
    .st60{fill:#DBD4BF;}
    .st61{fill:#B6AB8D;}
    .st62{fill:#766D5F;}
    .st63{fill:#AA9288;}
    .st64{fill:#DBD3B8;}
    .st65{fill:#EEECE6;}
    .st66{fill:#474237;}
    .st67{fill:#484338;}
    .st68{fill:#C8BA90;}
    .st69{fill:#C9BC93;}
    .st70{fill:#393232;}
    .st71{fill:#C7BA90;}
    .st72{fill:#4B443D;}
    .st73{fill:#393332;}
    .st74{fill:#6D6555;}
    .st75{fill:#3B3533;}
    .st76{fill:#3A3433;}
    .st77{fill:#E0D8C0;}
    .st78{fill:#E3DCC7;}
    .st79{fill:#E6E1CF;}
    .st80{fill:#47413F;}
    .st81{fill:#DAD3BE;}
    .st82{fill:#E1D9C2;}
    .st83{fill:#E4DDC8;}
    .st84{fill:#E0D8C2;}
    .st85{fill:#605A55;}
    .st86{fill:#DAD1B4;}
    .st87{fill:#EBE6D7;}
    .st88{fill:#D3C8A7;}
    .st89{fill:#D0C5A2;}
    .st90{fill:#AB6447;}
    .st91{fill:#DCDBD9;}
    .st92{fill:#DFDEDC;}
    .st93{fill:#D7CDAE;}
    .st94{fill:#D3C8A6;}
    .st95{fill:#DED5BB;}
  </style>
  <defs>
  </defs>
  <g>
    <path class="st0" d="M243.9,26.5c33.5,42.2,52.6,91.2,66.5,142.5c1.1,4.1,2.1,8.2,3.2,12.3c1.7,6.2,3.2,12.5,4.1,18.9
      c0.1,0.7,0.4,1.6-0.3,2.3c-1.1,2.1-0.8,4.5-2,6.7c-2.7,5-7,8.3-11.5,11.3c-7.7,5.1-16.2,8.4-25.2,10.5c-1.2,0.3-2.4,0.7-3.7,1
      c-3.8,0.4-4.2,0.1-3.2-2.7c1.7-1.3,3.8-1.5,5.7-2.2c1.8-0.2,3.4-0.8,4.9-1.6c2.8-0.8,5.5-2,8.3-3c0.2-0.1,0.5-0.2,0.7-0.2
      c1-0.2,1.8-0.6,2.6-1.2c4.3-2,8.3-4.2,11.9-7.3c2.7-2.3,4.8-4.9,5.7-8.3c0.1-0.2,0.2-0.4,0.4-0.7c0.6-0.8,0.4-1.6,0.4-2.5
      c0-0.4,0-0.8,0-1.2c-0.3-3.7-1.1-7.4-2.2-11c-0.3-0.9-0.6-1.7-0.6-2.6c0.1-1.7-0.2-3.3-1-4.9c-0.8-1.4-0.5-3-1-4.5
      c-1.2-3.6-1.8-7.3-3.3-10.8c-2.4-2.3-5.1-4.1-7.8-6c-0.8-1.3-1.4-2.6-3.1-3c-0.7-0.2-1.2-0.7-2.1-0.9c0.2,2.5,0.7,4.8,1.4,7
      c3,8.7,7,16.8,11.4,24.9c1.4,2.6,2,5.4,2.3,8.3c0.2,1.5,0.1,2.9-0.9,4.1c-1.5,1-2.1,0.1-2.2-1.1c-0.4-7.2-5-12.7-7.8-18.9
      c-3.5-7.9-7.3-15.9-7.8-24.8c-0.1-1.4-0.4-2.7-1.6-3.6c-6.1-4.4-12.2-8.7-18.9-13c-0.1,2.8,0.2,5.2,1,7.5c0.6,1.5,0.8,3.2,1.5,4.6
      c2.5,5.1,3.6,10.6,4.6,16.1c0.1,0.4,0.3,0.9,0.3,1.3c0.1,0.9,0.2,1.9-0.9,2.3c-1.2,0.5-1.9-0.3-2.5-1.2c-1.9-2.7-1.6-5.9-2.2-8.9
      c-0.2-1-0.3-2-0.9-2.8c-0.7-1.2-1.3-2.5-1.7-3.8c-2-5.3-3.4-10.7-3.5-16.4c0-1.7-1.2-2.6-2.5-3.3c-4-2.4-8-5-12-7.4
      c-0.5-0.3-0.9-0.5-1.4-0.8c-15.3-9.2-31.1-17.5-47.3-25c-10-4.7-20.2-9.1-30.5-13c-8-3.2-16.1-6.2-24.5-8.4
      c-0.6-0.4-1.2-0.7-1.9-0.9c-12.9-4.1-26-7.5-39.3-10.1c-1.1-0.2-2.5-1-3.5,0.4c-0.8,1-1.4,2.1-2,3.2c-5.6,8.7-12.8,16.3-18.4,25
      c-6.3,9.8-10.4,20.5-10.4,32.5c0,10.6-1,21.1-5.5,30.8c-2.4,5.2-2.7,10.7-3.2,16.2c-0.5,6.2-1.9,12.3-2,18.6c0,3.2-0.2,6.3-0.2,9.5
      c0,1.4,0.6,2.4,1.7,3.2c3.5,2.7,6.7,4.9,11.4,1.9c2.4-1.5,5.4-2.1,8.3-2.6c1.8-0.3,2.9-1.3,3.8-2.7c1.7-2.9,3.5-5.7,5.3-8.6
      c1.1-1.8,2.6-2.5,4.8-2.6c14-0.3,28,0.9,41.9,0.6c2.3,0,3.8,1,4.6,3.1c0.9,2.3,1.9,4.5,2.8,6.8c0.6,1.6,1.6,2.4,3.4,2.6
      c6.8,0.7,13.1,3.1,18.7,7c1.6,1.1,3,1.5,4.7,0.3c5.8-4,11.2-2.4,16.4,1.3c9.2,6.6,10.7,18.2,3.4,27c-1.7,2-4,3.2-6.3,4.2
      c-5.5,2.3-11.1,4.6-16.9,6c-3.9,1-7.9,1.1-11.9,0.9c-2.9-0.1-4.6-1.3-5.2-4c-0.5-2.3-1.7-2.3-3.5-2.1c-12.1,1.6-24.2,2.5-36.4,2.2
      c-8-0.2-16-0.6-23.8-2.3c-1.2-0.3-2.2-0.6-2.8,1.1c-2,5.9-6.1,8.2-12.4,6.9c-7.3-1.6-13.9-4.7-20.4-8.1c-2.6-1.4-2.8-1.3-3,1.6
      c-0.6,9.1,3.1,16.6,8.4,23.6c0.7,0.9,1.4,1.8,2.4,2.2c5.3,2.4,10.2,5.6,15.8,7.2c7.4,2.1,15,2.9,22.5,3.8
      c5.9,0.7,11.6,1.8,16.9,4.7c5.4,2.9,11.4,4.3,17,6.5c3,1.2,5.9,2.3,8.7,4c1.2,0.7,2.4,1.3,3.8,1.6c8,1.6,15.9,3.8,23.9,5.5
      c0.4,0.1,0.9,0.2,1.3,0.2c6.7-0.1,13.5,0.9,20.1,0c7.2-1,14.4-1.9,21.3-4.2c7.4-2.4,15.1-4,22.8-5.1c6-0.9,12-2,18-2.6
      c2.3,0.6,4.5,0.6,6.8-0.3c1-0.4,2.8-0.9,2,1.5c-4.8,2.7-10.3,2.7-15.6,3.3c-3.6,0.4-7.1,1.5-10.7,1.9c-0.5,0-0.7,0.3-1,0.7
      c-5.9,8.8-12.5,16.9-20.3,24c-0.7,0.6-1.4,1.2-2.1,1.7c-6.4,4.4-11.7,2.9-15.3-4.1c-1.8-3.5-3.3-7.2-4.9-10.9
      c-0.7-1.5-1.7-1.9-3.4-2c-8.3-0.5-16.8,0.6-24.9-1.6c-6-1.6-12-2.9-18-4.2c-1.1-0.2-2.2-0.4-3.1-1c-2.2-1.6-3.3-1.2-4.3,1.5
      c-1.5,4-3.6,7.7-6,11.3c-3.3,4.8-7.5,7.9-13.3,9.1c-5.3,1.1-10.6,2.6-16.1,1.6c-3.1-0.6-5.6-3.4-5.6-6.6c0-5.7,2.1-11,3.8-16.3
      c1.3-4.4,3.5-8.5,4.4-13.1c0.4-2-0.1-2.6-2.2-2.8c-9-1.1-18.1-1.8-26.9-4.2c-6.5-1.8-12.1-5.4-18-8.2c-1.6-0.7-2.5-2.3-3.6-3.7
      c-7.7-9.8-9.3-21-7.5-33c0.3-2,0.2-3.9-0.1-5.9c-1.2-8.8,0.2-17.2,5.3-24.7c0.6-1,1.5-2.2,2.4-2.5c3-0.9,3.4-3.2,3.5-5.7
      c0.2-6-0.1-12,1.2-17.9c0.1-0.5,0.1-0.9-0.6-1.3c-11.3-7-20.5-16.4-28.4-26.7c-7.8-10.2-14.4-21.4-18.9-33.6
      c-2.9-8-6.7-15.7-8-24.2C-0.1,92-0.7,84.2,1.3,76.4c0.3-1.3,0.6-2.7,1.5-3.7C4,72.5,4,73.5,4.2,74.2c0.1,1.4-0.4,2.7-0.7,4.1
      c-0.6,1.4-0.2,3-0.6,4.5C2.1,86.9,3.2,91,3.4,95.1c0.1,1.5,0,3.1,0.3,4.6c0.9,2,1,4.1,1.8,6.1c0.7,2.4,1.5,4.8,2.6,7
      c0.5,1.4,0.9,2.9,1.6,4.3c0.1,0.2,0.2,0.5,0.3,0.7c3.5,9.7,8.7,18.5,13.8,27.3c6.4,11.1,15.5,19.5,24.3,28.3c1.8,1.8,4,3.1,6,4.6
      c1,0.5,1.4,2.1,3,1.5c-0.3-8.7,2.4-16.8,5.5-24.7c2-5.4,2.5-11.1,2.9-16.8c0.4-1.2,0.5-2.5,0.1-3.7c-0.1-0.6-0.2-1.2-0.2-1.8
      c0.5-5.7,1-11.5,2.7-17c2-4.6,3.7-9.2,5.6-13.8c0.5-1.5,1.5-2.7,2.3-4.1c4.4-5.6,8.6-11.3,13.4-16.8c-1-0.5-1.5,0-2.1,0
      c-4.1,0.9-7.8,2.7-11.5,4.5c-4.7,1.7-9.1,4.1-13.2,6.8c-3.3,2.2-6.7,4.3-9.9,6.8c-0.5,0.4-1,0.8-1.6,1c-0.6,0.2-1.2,0.5-1.8-0.1
      c-0.5-0.6-0.2-1.2,0.2-1.7c0.9-1.2,2-2.1,3.1-3c6-4.9,12.5-9,19.5-12.2c0.2-0.1,0.5-0.2,0.7-0.3c1-0.3,1.9-0.7,2.8-1.2
      c3-1.7,6.4-2.5,9.7-3.7c2-0.7,4.1-1.1,6.1-1.5c0.6-0.2,1.2-0.3,1.6-0.7c0.4-0.8,1.9-1.2,0.7-2.4c-0.6-0.2-1.1-0.4-1.7-0.5
      c-1.6-0.4-3.2-0.2-4.7-0.9c-1-0.5-2.2-0.3-3.3-0.6c-9-0.8-17.9-0.9-26.7,1.3c-12.8,3.2-24.7,8.3-35.9,15.3
      c-3.6,2.3-7.5,4.2-10.6,7.3c-1.5,1.2-3,2.4-4.3,3.7c-0.7,0.7-1.4,1.5-2.6,1C3.2,98,4.4,97,5.2,96.1c2-2.2,4.2-4.2,6.6-6.1
      c0.8-0.7,1.5-1.4,2.4-1.9c1.1-0.4,2-1,2.9-1.6c5.3-3.7,10.9-6.7,16.7-9.4c6.6-3.2,13.5-5.9,20.6-7.7c10.3-2.7,20.7-3.5,31.3-1.7
      c0.6,0.1,1.3,0.1,1.9,0.2c1.5,0.3,3,0.8,4.5,1.1c1.4,0.3,2.6,1,4.1,1.1c0.6,0,1.7,0.1,0.8-1.1c-0.8-0.4-1.7-0.2-2.5-0.4
      c-0.3,0-0.5-0.1-0.8-0.2c-1.3-0.4-2.6-0.1-3.9-0.5c-16.3-2-32.6-2.9-48.9-0.3c-1.2,0.2-2.3,0.5-3.4,0.8C28.6,70,20.2,73,13,78.6
      c-1.5,0.8-2.5,2.4-3.9,3.3c-1.9,1.3-3,0.6-3.2-1.8c2.6-3.6,5.8-6.5,9.5-8.8c1.3-0.8,2.7-1.6,4-2.3c2.8-1.4,5.5-2.8,8.4-3.9
      c4.5-1.5,9.1-2.3,13.7-3.3c7.4-0.9,14.9-1.8,22.4-1.7c9.3,0,18.6,1,27.8,2.3c12.4,1.7,24.6,4.3,36.7,7.6c0.8,0.3,1.7,0.5,2.6,0.7
      c1.8,0.7,3.8,1,5.6,1.6c12.6,3.7,25.1,7.9,37.3,12.8c1.1,0.4,2.2,0.9,3.3,1.3c0.5,0.2,1,0.4,1.5,0.6c2.7,1.1,5.4,2.3,8.1,3.3
      c8.9,3.7,17.4,8.1,26.2,11.9c20.4,10.3,40.2,21.5,59.2,34.1c2.3,1.5,2.7,1.3,3.1-1.6c0.6-4,0.2-8-0.9-11.8c-0.4-1.3-0.8-2.6-0.8-4
      c-0.1-1.9,0.8-2.3,2.3-1.1c3.3,6.2,4.6,12.7,2.7,19.6c-0.5,1.7-0.3,3.1,1.4,4.2c7.4,4.9,14.4,10.3,21.4,15.7c0.3,0.1,1,0.6,0.8-0.3
      c-0.1-1.2-0.6-2.3-0.9-3.4c-3.6-12-7.7-23.9-12.2-35.6c-0.3-0.7-0.6-1.3-1-1.9c-1.4-2.6-1.6-5.8-3.3-8.3c-0.1-1.5-1.3-2.6-1.7-4
      c-0.9-3.7-2.9-7-4.4-10.5c-3.5-7.6-6.7-15.3-11.2-22.3c-0.3-0.4-0.6-0.9-0.7-1.4c-0.3-1.5-1.1-2.8-2-4c-0.5-0.9-0.9-1.8-1.4-2.6
      c-1.3-2.6-2.9-4.6-5.9-5.6c-2.8-1-5-3.3-7.3-5.1c-3.4-4.1-8.5-5.6-12.8-8.3c-2.7-1.7-5.5-3.5-8.3-5c-0.7-1-1.8-1.5-2.9-1.9
      c-0.2-0.1-0.4-0.2-0.7-0.3c-1.3-0.9-2.8-1.6-4.3-2.3c-0.2-0.1-0.5-0.2-0.7-0.3c-1.1-1-3.2-0.6-3.5-2.7c0.4-0.7,1-0.8,1.8-0.8
      c4.6,1.3,9,3.2,13.2,5.5c4.1,2.8,8.4,5.4,12.8,7.6c3.4,1.6,6.1,4.1,8.9,6.6c0.9,0.8,1.9,1.5,2.9,2.2c0.5,0.4,1.1,0.7,1.6,1.1
      c0,0,0.1,0.1,0.1,0.1s-0.1-0.1-0.1-0.1c-0.4-0.4-0.8-0.6-1.2-0.9c-4.1-7-8.6-13.6-13.6-19.9c-0.6-0.7-1.1-1.5-1.8-2
      c-0.3-0.2-0.5-0.5-0.7-0.8c-0.4-1.1-1.2-1.9-2.2-2.6c-0.5-0.4-0.9-0.8-1.2-1.4c-0.5-1.3-1.5-2.2-2.7-2.9c-1.4-1.1-2.7-2.3-3.8-3.7
      c-4.3-4.8-9.2-8.9-15.1-11.6c-7.6-5.6-16.3-4.1-24.9-3.8c-2.4,0.6-4.9-0.1-7.3,0.5c-0.4,0.1-0.9,0.2-1.3,0.2
      c-1.4,0.1-2.9-0.1-4.3,0.3c-0.4,0.1-0.9,0.2-1.3,0.2c-1.5,0.1-3-0.1-4.4,0.4c-8.2,1.2-16.5,2.2-24.7,3.9c-7.8,1.1-15.4,3-23,4.8
      c-6.7,1.6-13.4,3.1-19.8,5.4C99.1,21.3,93.5,23,88,24.9c-0.8,0.3-1.5,0.5-2.3,0.9c-3.8,1.9-8,2.4-11.8,4.1
      c-0.2,0.1-0.5,0.2-0.7,0.3c-1.5,0.4-3,0.9-4.4,1.6c-13.7,5.3-26.9,11.7-39.5,19.3c-0.8,0.5-1.7,1-2.4,1.7c-1.1,0.9-2.2,1.7-3.5,2.4
      c-0.9,0.3-1.7,1-2.4,1.6c-6,3.2-10.3,8.1-14.8,13c-1,0.4-1.7,0.3-1.2-1c2-3.3,4.5-6.2,7.6-8.6c0.8-0.5,1.6-1,2.2-1.8
      c6.3-5.5,13.3-10,20.6-14c26.8-14.6,55.3-24.5,84.8-32.1c24.7-6.3,49.7-10.6,75.2-12c5.2-0.3,10.3-0.8,15.4,0.7
      c6.7,2,12.2,6,17.6,10.1c1.6,1.2,3.1,2.6,4.6,3.8C237.3,18.2,240.8,22.1,243.9,26.5z"/>
    <path class="st0" d="M271.2,232.5c3.6,6.9,5.7,14.5,7.7,22c2.2,8.1,2.2,16.4-0.6,24.4c-1.3,3.9-4.3,6.9-7.2,9.8
      c-2.7,0.3-2.7,0.3-2.2-2.7c0.2-0.8,0.7-1.5,1.3-2.1c7.2-7.8,7.5-17.2,5.2-26.6c-3.9-16.1-10.6-31.2-18.6-45.6
      c-2.4-4.3-4.8-8.7-6.8-13.3c-3.3-7.7-2.4-15.4-0.6-23.2c0.3-1.1,0.7-2.3,1-3.4c2.9-6.6,2.7-13.5,2.3-20.4c-0.1-0.3-0.1-0.5-0.2-0.8
      c-0.2-1,0-2.1-0.3-3.1c-0.1-0.2-0.1-0.5-0.2-0.7c-0.2-1.1,0-2.2-0.4-3.3c-0.1-0.2-0.1-0.5-0.2-0.7c-0.1-1.4-0.6-2.8-1.1-4.1
      c-0.8-2.6-2.4-5-1.3-7.9c0.2-0.2,0.5-0.3,0.8-0.3c2.9,2.8,3.8,6.7,4.9,10.3c0.8,2.5,1,5.1,1.5,7.7c0.1,0.3,0.1,0.6,0.2,0.8
      c0.1,1.1,0,2.3,0.5,3.4c0.1,0.6,0.2,1.2,0.2,1.8c0,2.5,0,5,0,7.5c-0.4,3.9-1.2,7.7-2.5,11.4c-3.3,9.5-4,18.9,1.6,27.9
      c3.1,5,5.3,10.5,8.1,15.7c0.9,2.1,1.6,4.2,3,6.1c0.7,1.4,1.4,2.8,2.1,4.1C270.1,228.8,271.2,230.4,271.2,232.5z"/>
    <path class="st1" d="M269.5,286.3c-1,1.9,0.7,1.9,1.7,2.3c-3.5,4-7.3,7.7-12,10.3c0.2-1.5-0.7-1.4-1.6-1c-2.4,1.1-4.8,1.1-7.2,0.4
      c0-0.7,0.5-1,1.1-1c7.2-0.3,11.8-4.9,16.1-9.8C268.1,287,268.5,286.2,269.5,286.3z"/>
    <path class="st2" d="M317.4,202.4c-0.1-6.3-2.1-12.2-3.3-18.3c-0.2-1-0.3-1.9-0.5-2.9c1.8,5,3.5,10,3.8,15.3
      C317.6,198.5,319.2,200.5,317.4,202.4z"/>
    <path class="st3" d="M243.9,26.5c-3.6-3.8-7.3-7.6-10.9-11.4c3.5,1.4,5.8,4.2,8.1,7C242.2,23.3,243.5,24.6,243.9,26.5z"/>
    <path class="st4" d="M271.2,232.5c-1-1.7-1.7-3.5-2.2-5.4c0-1.4,1-1,1.6-0.7c1.2,0.6,2.4,1.2,1.8,3c-1.1,2.5-0.9,2.6,2.6,2.6
      C273.8,233,272.5,232.3,271.2,232.5z"/>
    <path class="st5" d="M3.6,74.5c-0.1-0.7,0-1.4-0.7-1.8c0.6-1.4,1.2-2.7,2.3-3.8c0,0.9,0.4,1,1.1,0.6C6.5,71.8,5.4,73.4,3.6,74.5z"
      />
    <path class="st5" d="M14.9,58.4c-0.3,1.1-0.9,1.8-2.2,1.8C13.5,59.6,14.2,59,14.9,58.4z"/>
    <path class="st6" d="M269.5,286.3c-3.6,3.8-6.8,8.1-11.9,10.3c-2.4,1.1-4.9,1-7.3,1.7c-14.8,2-29.5,4.4-44,8.6
      c-10.7,3.2-21.8,4.1-33.1,3.6c-8-0.4-15.3-3.2-23-4.1c-8.2-1-14.7-6-22.4-8.2c-8.3-2.4-15.7-7.2-24.1-9.1
      c-4.9-1.1-9.8-1.8-14.8-2.2c-11.2-0.8-21.4-4.6-31.1-10c-4.3-2.4-6.1-7.1-8.3-11.3c-3.1-6-4-14.9-2.3-19.8c4.9,3.7,10.5,5.7,16,8
      c3.8,1.6,7.6,2.9,11.9,2.3c5.2-0.7,6.8-2.4,7.4-7.7c0-0.3,0.1-0.7,0.2-1c16.8,3.7,33.7,3.4,50.7,2.1c4.9-0.4,9.8-0.9,14.6-1.7
      c1.2-0.2,1.9-0.2,1.9,1.5c-0.1,3.3,2,5,5.4,5.1c6.9,0.2,13.5-1.5,19.9-3.8c2.3-0.8,4.5-1.9,6.8-2.7c6.6-2.3,9.7-7.1,11.3-13.7
      c2.9-11.9-7.5-18.7-15.8-20.4c-3.3-0.7-5.8,1.6-8.5,3.1c-1.2,0.7-1.7,0.7-2.9-0.2c-6-4.7-13-7.2-20.5-7.9c-1.6-0.1-2.2-0.6-2.7-1.9
      c-1.1-2.8-2.3-5.5-3.3-8.3c-0.6-1.6-1.6-2.2-3.3-2.3c-14.3-0.1-28.5-0.3-42.8-0.5c-1.8,0-2.8,0.6-3.7,2.1c-2,3.4-4.1,6.6-6.2,9.9
      c-0.5,0.9-1.1,1.4-2.2,1.6c-4.9,0.7-9.5,2.2-13.8,4.6c-1,0.5-1.5,0.4-2.4-0.2c-8.2-5.7-7.8-5.7-7.3-16.4c0.4-8.9,2.6-17.6,2.8-26.5
      c0.1-3.6,1.6-6.9,3-10.1c3.9-8.8,5-18.1,4.9-27.6c-0.1-13,4-24.8,11.1-35.5c5.6-8.5,12.6-16.1,18.3-24.6c1.3-1.4,2.8-1.2,4.5-0.8
      c8.2,2.4,16.5,4.1,25,4.4c1.9,0.1,3.5,0.7,5.1,1.6c3.2,1.8,6.4,3,10.3,2.4c2.1-0.3,4.4,0.3,6.6,1c6.7,2.4,13.4,4.9,20.2,7.1
      c7.6,2.5,14.8,5.9,22.1,9.1c18.3,7.9,35.8,17.2,53,27.2c0.9,0.5,1.8,1.2,2.7,1.8c0.5,1.1,1.3,2.2,1.6,3.4c-0.4,2.8,1,5.3,1.7,8
      c0.3,1.5,0.6,3.1,1,4.5l0,0c0.6,1.2-0.2,2.6,0.6,3.8l0,0c0.6,1-0.2,2.3,0.5,3.3c0.1,0.1,0.2,0.2,0.1,0.4
      c-0.3,6.2,0.8,12.6-1.9,18.6c-0.4,0.9-0.2,1.9-0.3,2.9c-1,3.6-1.8,7.2-2.4,10.9c-1.2,8.3,1.7,15.5,5.7,22.4
      c6.6,11.3,12,23.1,16.8,35.2c2,5.1,3.6,10.5,4.9,15.8c1.7,7.1,1.5,14.2-0.7,21.2c-0.5,1.7-1.7,3-2.7,4.4
      C271.7,283.4,270.6,284.9,269.5,286.3z"/>
    <path class="st7" d="M275.5,118.1c-0.7-0.3-1.7-1.2-1.5,0.5c0.1,1.3,0.5,2.7,0.9,4c1.6,4.8,1.6,9.6,0.7,14.5
      c-0.4,2.1-1.1,1.8-2.5,0.9c-16.2-10.8-32.9-20.7-50.2-29.7c-3.5-1.8-6.9-3.6-10.4-5.4c1.1-1.3,2.7-1.2,4.3-1.3c1-0.1,2,0.1,3-0.2
      c2.2-0.5,2.8-2.4,1.2-4.1c-1.5-1.6-3.4-2.4-5.5-2.8c-5.4-1.1-10.6-3-15.1-6.4c-1.8-1.3-4.1-1.9-6-3.2c-2.5-1.7-4.5-3.9-6.7-6
      c-3.1-3.1-7.6-3-9.9,0.2c-0.4,0.6-0.9,1.3-0.7,2c0.7,2,0.1,3.9,0.1,5.8c-9.5-3.4-18.9-7.2-28.6-10.3c-4.1-1.3-8.3-2.6-12.4-3.9
      c0.5-0.7,1.2-0.7,2-0.6c2.7,0.5,3.2,0.2,2.7-2.4c-0.8-4.1-2.6-7.9-3.4-12c-0.3-1.3-1.6-1.6-2.8-1.8c-1.8-0.3-3.5-0.8-5.3-1.3
      c-3.3-0.8-5.4-3-6.8-6c1.7-1.2,3.6,0.4,5.5-0.4c-1.6-1.1-4.2,0.1-5-2.3c0.3-0.3,0.7-0.5,1.1-0.5c0.9-0.1,1.7-0.1,2.6,0.1
      c3.9,1.4,7.3-0.1,10.6-2.1c5.8-3.5,12.1-5.8,18.3-8.1c5-1.9,9.8-4.3,14.9-5.9c0.1,0,0.2-0.1,0.3-0.1c7.4-0.8,13.8-5,21.1-6
      c5.4-0.8,7.6,0.5,9.2,5.6c0.6,2,1.6,3.8,3.3,5.2c2.1,1.8,3.2,4.4,5.3,6.2c0.8,0.6,1.3,1.5,2.5,2c0.4-1.4-0.2-2.6-0.6-3.8
      c-1.1-2.7-1.2-5.6-1.7-8.4c2.6-0.3,4.9,0.3,6.9,1.9c1.2,0.8,2.8,0.9,3.9,2.1c-0.2,0.5,0,0.9,0.4,1.2c5.2,4.2,8.8,9.5,12.1,15.2
      c2.1,3.6,5.4,6.3,8.2,9.4c1.3,1.4,3.6,2.5,2.7,5.1c-0.9,1.1-0.8,2.4-0.8,3.6c0,3.5,0,7.1,0,10.6c0,1.1-0.1,2.2-0.5,3.2
      c-0.5,1.3-1.3,1.6-2.6,1c-3.1-1.4-3.9-2.9-3.5-6.3c0.3-2.6,0.1-5.2-0.5-7.9c-0.1,2.6,0.1,5.2-0.1,7.7c-0.1,2.7-1.3,3.5-3.7,2.4
      c-3.8-1.7-7.9-2.5-10.6-3.1c3.5,0.7,8.2,2,12.7,4c1,0.4,2,0.8,2.7,1.8c-1.4,3.8,1.8,5.1,3.8,6.8c1.6,1.3,3.3,2.5,4.6,4.1
      c0.6,0.7,1.4,1.7,2.5,1.2c1-0.5,0.5-1.6,0.4-2.5c-0.1-0.5-0.2-1.1,0.1-1.6c1.9-0.9,3.6,0.1,5.1,1c7,4.2,13.7,8.9,19.4,14.8
      c1.7,1.8,3.9,3,5.2,5.1c0.4,0.7,1.1,1.2,1,2.1C275.4,113.5,276,114.9,275.5,118.1z"/>
    <path class="st8" d="M68.9,115.3c-1.5,5.7-2.4,11.5-2.7,17.4c-0.9,2.2-0.3,4.4-0.6,6.7c-0.7,4.5-0.9,9-2.2,13.4
      c-0.2,0.7-0.6,1.6-0.1,2.3c-0.3,1-0.5,2.1-1,3.1c-3.1,6.5-4.5,13.5-4.4,20.7c0,0.8,0.2,1.6-0.5,2.3c-0.9-0.9-0.4-2.2-0.9-3.2
      c-1-0.2-1.6,0.7-2.5,0.8C43.2,170.2,33.1,161,25.7,149c-3.2-5.2-6.5-10.2-9.5-15.6c-2.8-5.1-4.9-10.5-6.9-15.9
      c1.2-1,0.4-2.2,0.2-3.3c-0.7-4.1-1.6-8.2-0.3-12.3c1.2-3.9,3.3-7.1,7.2-8.6c2.6-1.1,3.4-3.9,5.5-5.5c-0.4-0.1-0.9,0-1.1-0.5
      c3-2.4,6.4-4.1,9.8-5.8c9.5-4.7,19.4-8.8,29.9-10.7c7.9-1.5,15.8-1.6,23.8-0.4c-1.2,1.2-2.7,0.7-4.1,0.8c-1.5,0.1-3.1,0.1-4.6,0
      c-1.6,0-2.7,0-1.9,2.2c0.7,1.8-0.2,3.4-1.2,4.8c-1.4,1.8-1.4,3.4,0.4,4.9c-7.1,3.6-14,7.6-20.1,12.8c-1.3,1.1-2.8,1.9-3.4,3.8
      c1.4,0.3,2.1-0.6,2.9-1.2c6.5-4.9,13.3-9.4,20.7-12.8c0.8-0.4,1.7-0.6,2.5-0.9c0.2,0.3,0.2,0.5,0.1,0.8c-0.7,0.9-1.5,1.8-1.2,3.1
      c1.2,5.9-0.6,11.4-2.6,16.8C70.6,108.7,69.3,111.9,68.9,115.3z"/>
    <path class="st9" d="M82.6,213.4c-2,1.8-1,4.1-0.9,6.1c0.1,4.8,0.5,9.6,0.7,14.4c0.1,1.7,1,2.2,2.4,2.4c10.1,0.9,20.1,0.9,30.2,0.3
      c5.2-0.3,10.5-0.2,15.8-0.7c4.5-0.4,9.1-0.5,13.6-0.7c2.9-0.2,3.4-0.9,3.1-3.8c-0.7-5.7-1-11.4-1.9-17c-0.5-3.1-0.2-3.2,2.9-2.5
      c6.1,1.4,11.7,3.7,17.1,7.4c-1.9,1.8-3.8,3.3-5.5,5.2c-5.2,5.9-4.9,9.4,1.1,14.4c-3,1.3-5.5,3.2-7.7,5.6c-1.4,1.6-3.4,1.3-5,1.6
      c-16.3,2.4-32.7,2.8-49.1,2.2c-8.9-0.3-17.4-2.1-24.7-7.8c-0.4-0.3-0.8-0.4-1.1-0.7c-0.6-0.6-1.2-1.3-1.8-2
      c6.5-4.8,6.3-11.5-0.6-18.8c-2.8-3-2.9-2.9,1-4.3c2.6-1,5.4-1.7,8.1-2.4C81.4,211.7,82.1,212.1,82.6,213.4L82.6,213.4z"/>
    <path class="st10" d="M269,158.9c1.6,1.8,1.2,4.1,1.5,6.2c0.3,2,0.7,3.9,1.6,5.7c0.4,0.7,1,1.5,1.9,1.1c0.8-0.4,0.7-1.3,0.4-1.9
      c-1.5-2.8-1.2-6-1.9-9c-1.1-4.3-3.4-8.2-4.6-12.4c-0.9-3.1-1.1-6.3-1.8-10.1c1.9,1.2,3.4,2.1,4.8,3.1c4.4,3,8.6,6.3,13.2,9.1
      c3.4,2,4.7,4.7,5,8.5c0.7,8.4,4.6,15.9,8.1,23.4c2.7,5.9,7.2,11.2,7,18.3c0,1.4,0.7,1,1.3,0.5c0.5,2.7-0.6,4.3-3.1,4.5
      c-2.2,0.2-4.4,0-6.4-0.7c-2.1-0.8-3.9-0.3-5.7,0.8c-1.6,1-2.9,2.4-4.7,3.2c-0.8,0.4-0.9,1.1-0.7,1.9c0.7,3.1,0,6.1,0,9.2
      c-0.2,0.7-0.2,1.5-1.3,1.5c-1.1-1.4-0.7-3-0.7-4.5c0.1-3.1-0.4-6.1-1.6-9c-1.2-3-1.8-6-1.7-9.3c0.2-5.7-2.2-10.7-4.7-16.3
      c0,1.5,0.3,2.3,0.5,3.2c0.2,0.9,0.6,1.7,0.9,2.5c1.4,3.3,2.2,6.7,2.1,10.3c-0.1,2.4,0.3,4.7,0.9,7c0.3,1.1,0.8,2.3,0.1,3.4
      c-1.5,0.3-1.7-0.9-1.9-1.7c-0.9-3.3-2.7-6.1-4.3-9c-2.2-4.1-3.5-8.6-3.7-13.5c-0.1-4.1,0.1-8.1,0.8-12.1c0.2-1.1-0.2-2.1-0.4-3.2
      C269.3,166,268,162.5,269,158.9z"/>
    <path class="st6" d="M99.4,213.9c13.7,0.2,27.4,0.5,41.1,0.6c2.1,0,3,0.4,3,2.8c0.1,4.3,0.5,8.7,0.9,13c0.1,1.2,0.1,2-1.5,2.1
      c-17.2,1-34.4,1.8-51.7,1.5c-6.2-0.1-6.2-0.2-6.8-6.2c-0.4-4.4-0.9-8.8-1.4-13.2c0-0.6,0.4-0.8,0.9-0.8
      C89.1,213.8,94.3,213.5,99.4,213.9z"/>
    <path class="st11" d="M103.5,328.4c-6,0.4-7.7-3.5-6.4-9.3c1.5-7.3,4.1-14.2,6.5-21.2c0.4-1.2,1-2.4,0.8-3.7
      c-0.4-2.7,1.1-2.6,2.9-1.9c3,1.2,5.5,3.4,8.7,4.4c5.7,1.9,11.3,4,16.9,6.1c1,0.4,2.5,0.5,1.7,2.4c-2.5,5.6-5,11.3-9.1,16
      c-2.9,3.4-6.9,4.5-11,5.5C110.8,327.7,107.2,328.2,103.5,328.4z"/>
    <path class="st6" d="M157.8,251.7c-1.5-0.1-3.8,0.9-4.7-1.4c-1-2.4,1.5-3.2,2.7-4.5c2.6-2.6,5.7-4.5,9.2-5.5c1-0.3,2-0.7,1.9-1.9
      c-0.1-1.1-1.1-1.3-2-1.5c-0.5-0.1-1.1-0.2-1.6-0.4c-4.8-1.7-5.8-4.9-2.6-9c4-5.1,9.1-8.7,15.2-11.1c0.6-0.3,1.4-0.3,2.1-0.2
      c8.7,0.7,15,10.2,12.7,18.5c-1.6,5.8-5.1,9.2-10.6,11.3C172.9,248.6,165.9,251.4,157.8,251.7z"/>
    <path class="st6" d="M73.4,229.7c0,2.7-1.7,4.3-3.8,5.5c-1.3,0.8-2.8,1.2-4.2,1.8c-0.8,0.3-1.5,0.7-1.4,1.8c0.1,1,0.8,1.4,1.7,1.4
      c5.2,0.2,8.3,4.5,12.6,6.4c2,0.9,1.7,2.9,0.1,4.3c-2.2,1.8-4.7,2.7-7.6,2c-6.3-1.5-12.1-4.4-17.8-7.2c-4.3-2.1-5.2-6.6-5.8-10.8
      c-1.1-7.9,0.5-15.3,4.9-22.1c1.6-2.4,3.2-2.9,5.4-1.3c4.1,3.1,8.3,6.1,12,9.7C71.8,223.5,73.3,226.2,73.4,229.7z"/>
    <path class="st10" d="M267.9,70.6c2.5,3.3,4.1,7.2,5.9,10.9c3.2,6.7,6.2,13.5,9.3,20.2c0.3,0.6,0.4,1.4,0.6,2.1
      c0.5,3.1-0.8,6.1-0.9,9.1c-1.3,0.7-2-0.4-2.7-1.1c-4.5-4.8-9.3-9.2-14.4-13.2c-4.7-3.8-9.7-7.3-15.5-9.3c-2.2-0.8-4.4-1.7-5.8-3.9
      c0-2.7,1.1-3.5,3.2-1.9c2.1,1.5,4.2,1.8,6.6,1c4.1-1.2,7.2,0.9,10.2,3.1c0.9,0.7,1.5,1.8,3,2.1c-0.4-1.5-1.4-2.4-2.4-3.2
      c-1.8-1.4-3.7-2.6-5.7-3.7c-1.4-0.8-2.7-1-4.3-0.2c-2.7,1.4-4.4,0.5-5.2-2.4c-0.3-1.2-1-1.8-2.2-2.1c-0.9-0.2-2-0.4-2-1.5
      c-0.1-3.6-0.8-7.2-0.4-10.8c1.2-0.9,1.8,0.2,2.5,0.8c1.2,1.1,2.5,2.1,3.8,3c4,2.9,8.2,3,12.1,0.1C265.7,68.3,266.6,70,267.9,70.6z"
      />
    <path class="st6" d="M84.5,211c2.8-4.2,5.1-7.7,7.3-11.2c0.6-1,1.5-1.1,2.5-1.1c13.5,0.3,27.1,0.5,40.6,0.7c1.6,0,2.2,0.6,2.7,2
      c0.9,2.7,1.9,5.3,3.1,7.8c0.9,2,0.4,2.4-1.7,2.4c-12.4-0.2-24.7-0.4-37.1-0.5C96.5,210.9,90.9,211,84.5,211z"/>
    <path class="st11" d="M228.8,305.7c-6.1,7.8-11.9,15.9-19.6,22.4c-5.5,4.6-9.5,3.8-13.1-2.5c-2.2-3.9-3.4-8.2-6-12.5
      c13.1-1.4,25.3-6,38-8.5C228.5,304.9,228.8,305.2,228.8,305.7z"/>
    <path class="st12" d="M283.6,221.5c0.8-0.3,0.7-1,0.7-1.6c0.2-1.7,1.2-2.5,2.7-3.2c3-1.4,5.6-3.6,8.3-5.5c1.7-1.3,3.5-2.1,5.6-2.5
      c4.6-0.7,8.6-2.2,10.4-7c0.3-0.8,1-1.4,1.8-0.3c0,0.4,0,0.7,0,1.1c-0.7,0.8,0.1,1.8-0.6,2.6c-0.1,0.1-0.3,0.2-0.5,0.3
      c-1.5,3.1-4.3,4.9-6.9,6.8c-4.1,3-8.4,5.9-12.4,9c-0.5,0.4-1.4,0.6-1.4,1.5c-2.8,1.3-5.7,2.5-8.8,3.2c-0.8-0.6-1.8-0.7-2.8-0.9
      c-4-0.7-6.5-4.1-5-7.9c2-4.9,0.8-8.2-3-11.7c-6.2-5.6-7.4-13-7.2-21c0.1-4.7,1.1-9.1,1.8-13.7c0.5-3.5,0-7.1-0.4-10.6
      c-0.2-2.2-1.4-3.9-3.7-4.7c-2.4-0.8-4.3-2.3-6-4.1c-0.5-0.7,0.1-1.7-0.5-2.4c-0.1-0.1-0.1-0.3-0.1-0.4c-0.3-1.6,0.8-2,1.5-1
      c1.9,2.9,4.6,3.8,7.7,4.5c1.7,0.4,1.7,2.2,2.4,3.4c0.5,1.1,1.1,2.2,1.6,3.3c0.8,3.9,0.7,7.8,2.1,11.6c0.9,2.3-0.5,4.7-0.7,7.2
      c-0.5,7.8,0,15.4,4.8,22.1c1.2,1.7,2,3.6,2.6,5.6c0.3,1.3,0.4,2.7,1.7,3.6c1.7,0.6,1.6,2.2,2,3.5c0.8,3.1,1,6.2-0.1,9.2
      C282.4,222.5,282.9,221.3,283.6,221.5z"/>
    <path class="st13" d="M177.4,87.1c-0.6-0.8-2.1-1.4-0.5-2.7c0.4-0.3,0.3-0.7,0.2-1.2c-1-5,2.3-8.3,7.3-7c1.5,0.4,3,1.1,4.1,2.4
      c3.1,3.7,7.2,6.1,11.4,8.5c3.8,2.1,7.6,4,11.5,5.7c1.6,0.7,3.2,0.7,4.7,1c2,0.4,3.7,1.5,5.3,2.6c1.1,0.8,1.8,2.1,1.4,3.3
      c-0.4,1.4-1.5,2.5-3.2,2.4c-2.4-0.1-4.7,0-7,0.6c-8.7-4-17.4-8-26.1-12c0.4-0.7,1-0.4,1.4-0.4c-2.5-2.7-5.4-4.8-9.4-2.8
      C178.1,87.4,177.8,87.2,177.4,87.1z"/>
    <path class="st14" d="M253.7,51.1c-6.4-6.1-14.9-8.8-21.8-14.1c-1.8-1.2-3.1-2.8-4.3-4.7c-0.9-1.5-2.3-2.5-3.8-3.4
      c-3.4-2-6.8-4-10.4-5.7c-1.6-0.8-2.8-0.9-2.8,1.5c0,1.3-0.5,2.5-1.6,3.2c-0.9,0.6,0.2,1.2,0,1.8c-0.4,2.1-1.6,2-2.9,0.8
      c-1.1-1-1.4-2.4-1.4-4c0-4.9-1.5-6.5-6.3-7c-3.8-0.4-7.5,0.9-11.3,1.3c-2.9,0.3-5.4-0.7-7.7-2.2c2.5-1.7,5.3-2.6,8.3-2.9
      c1.9-0.2,3.8-0.4,5.6-1c7.8-2.5,15.3-1.9,22.4,2.3c4.2,2.5,8.5,4.8,13.1,6.4c1.3,0.5,2.6,1,3.5,2c4.6,4.8,9.1,9.6,11.9,15.7
      c0.8,1.7,1.8,2.9,3.4,3.7c1.9,1.1,3.6,2.4,5.1,4.1C253.3,49.4,254.2,50,253.7,51.1z"/>
    <path class="st15" d="M313.2,201.4c-0.4-0.1-0.9-0.5-1.1,0.2c-1.5,5-5.3,7-10.1,7.6c-5,0.5-8.1,4.3-12.1,6.7
      c-1.2,0.7-2.2,1.9-3.8,2c-1.3,0.1-1.1,1.5-1.8,2.1c0-3.3,0.6-6.6-0.1-9.9c-0.1-0.6-0.2-1.2,0.4-1.4c2-0.4,3.1-2.2,4.7-3.1
      c2.1-1.1,4.1-2.7,7-1.2c1.7,0.9,4,0.6,6,0.7c2.7,0.1,2.8-2,3.2-3.9c1.4-5.1-0.4-9.6-2.9-13.9c-3.7-6.4-6.7-13.2-9.4-20.1
      c-1.4-3.6-2.5-7.4-2.6-11.4c1.4,0.2,2.1,1.6,3.3,2c1.1,0.4,0.9,1.4,1.1,2.3c1.1,4.1,2,8.3,5.2,11.5c1.4,1.4,2,3.2,2.6,5
      c1.2,3.6,3.3,6.8,4.7,10.4c0.4,1,1,1.2,1.8,0.4c0.3-0.3,0.6-0.5,1-0.3c0.8,3.6,1.6,7.1,2.4,10.7
      C313.1,199.1,313.3,200.2,313.2,201.4z"/>
    <path class="st15" d="M267.9,70.6c-0.1,0.5-0.4,1.1-0.7,0.4c-1.2-2.3-2.3-1.4-3.7-0.1c-2.4,2.2-7.7,2.2-11.1,0.1
      c-2.5-1.5-4.5-3.6-6.7-5.4c-0.5,0-0.8-0.3-1.1-0.7c0-0.1-0.1-0.2-0.1-0.3c0.1-1.9-1.5-2.9-2.6-3.9c-3.5-3.5-6.9-6.9-9.6-11
      c-2-3-3.4-6.3-6-9c-1.8-1.9-3.9-3.4-5.7-5.4c-1-1.1-1.1-1.4,0.5-1.4l0,0c1.6,1,3.2,1.9,5,2.7l-0.1,0c1,0.7,2.3,1,3.3,1.8
      c5.6,3.1,10.8,6.8,16.6,9.6c1.9,0.9,3.4,2.3,4.7,4c-1.2,0.8-1.9-0.2-2.6-0.8c-1.3-1.1-2.7-2-4.8-3c0.9,1.9,1.8,3.2,3,4.3
      c4,3.6,7.6,7.5,10.6,12c0.4,0.6,0.9,1.1,1.4,1.7c1.4,1.6,3,2.4,5,0.9c0.6-0.4,1.3-0.7,2-0.7c1.4,0.6,1.3,2.2,2.2,3.1
      C267.6,69.9,267.7,70.3,267.9,70.6z"/>
    <path class="st16" d="M275.5,118.1c-1.5-2.1,0-3.8,0.9-5.3c0.9-1.6,1.9,0.8,3,0.3c1.2-0.2,1.8,0.7,2.3,1.5c2,2.9,4.4,5.6,6.4,8.6
      c-0.9,1.4-0.7,2.6,0.3,3.9c2.4,3.3,4.3,6.9,5.4,10.8c1.2,4.6,2.8,9.2,3.8,13.8c0.3,1.4,1.1,2.5,2,3.5c0.7,0.7,1.8,1.4,1.3,2.7
      c-7.7-5.6-15.4-11.1-23-16.7c-0.7-0.5-1-1-0.7-1.8C279.9,132,278.5,125,275.5,118.1z"/>
    <path class="st17" d="M253.7,51.1c-1.6-2.5-3.8-4.4-6.4-5.7c-2-1-3.2-2.5-3.9-4.6c-0.9-2.7-2.6-4.9-4.6-6.8c-1.3-1.2-2-2.7-3-4.1
      c-2.9-4-6.6-6-11.2-7.4c-3-0.9-5.8-2.8-8.5-4.6c-5.5-3.7-11.6-4.1-17.9-3.9c-2.6,0.1-4.6,1.9-7.1,1.9c-4,0-7.6,1.7-11.4,2.5
      c-0.4,0.4-1,0.5-1.6,0.5c-1.2-0.4-2.5-0.3-3.7-0.3c-1.1-0.1-2.3-0.2-3-1.4c-0.1-0.3,0-0.5,0.3-0.7c4.1,0.8,7.5-1.7,11.2-2.6
      c7.1-1.7,14.3-3.3,21.5-4.6c1.4-0.3,2.6,0.4,4,0.7c5.3,1.2,9.9,3.9,14.4,6.9c0.6,0.4,1.1,1.1,1.8,1.2c7,1.4,11.2,6.6,15.8,11.3
      c0.4,0.4,0.5,1.5,1.6,1.1c3.4,3.3,6,7.3,8.8,11.2c2.5,3.6,5.1,7.2,7,11.1c0,0.9-0.5,0.8-1.1,0.6C255.3,52.8,254.4,52.1,253.7,51.1z
      "/>
    <path class="st18" d="M128.9,70.8c-8.8-2.2-17.6-4.4-26.5-6c-16.2-2.9-32.5-4.7-49-3.6c-4.1,0.3-8.1,0.8-12.2,1.2
      c-0.2-0.3-0.2-0.5,0-0.8c2.3-1.3,4.9-0.9,7.3-1.4c0.6-0.1,1.1-0.2,1.7-0.3c0.7-0.1,1.4-0.2,2.1-0.2c1.8,0.3,3.6,0,5.4-0.4
      c2.7,0.1,5.2-0.3,7.8-1c1.2-0.2,2.3-0.3,3.5-0.6c5.2-1.4,10.1-0.7,14.6,2.1c2.2,1.4,4.7,1,7.1,1.5c2.7,0.5,5.6,0.7,7.4,1.3
      c-4-0.5-7.6-3.4-11.5-6c-3.4-2.2-3.3-5,0-7.3c0.3-0.2,0.7-0.3,0.7-0.8c-1.1-0.5-2.3-0.4-3.4-0.6c-4.4-0.8-5.2-2.7-2.6-6.6
      c3-0.6,5.9-0.7,8.2,1.9c0.7,0.8,1.5,1.2,2.6,1.4c2.8,0.4,5.4,1.5,8.1,2.4c1.2,0.4,2.6,0.9,2.2,2.6c-0.4,1.5-1.7,2.1-3.2,2.1
      c-1.4,0-2.9-0.2-4.3,0.5c-2,1-2.2,1.7-0.7,3.4c2.6,3,6.4,4.1,9.9,5.3c4.4,1.6,9,2.2,13.5,3.2c3.3,0.7,6.6,1.5,9.6,3
      C128.5,68,130.2,68.7,128.9,70.8z"/>
    <path class="st19" d="M12.8,78.1c5.3-4.4,11.5-7.1,18.1-9c1.9-0.5,3.9-0.9,5.8-1.3c1.7-0.1,3.3-0.9,5-0.8c0.4,0,1-0.1,1.1,0.4
      c0.1,0.5-0.1,1-0.5,1.2c-2.8,1.4-4.1,3.8-5.1,6.6c-0.5,1.5-2.4,1.7-3.6,2.5c-5.6,2.8-11,5.9-16.3,9.2c-0.9,0.5-2,0.9-2.8,1.6
      c-0.7,0.6-1.4,1.1-2,1.7c-1.2,0.7-2,0.7-2.7-0.8c-2.3-4.7-2.2-5.7,1.4-9.6C11.7,79.3,12.2,78.7,12.8,78.1z"/>
    <path class="st17" d="M256.5,151.3c2.6,1.4,4.9,3.2,7.6,4.4c2.2,1,2.8,3.7,3,6.1c0.5,6.2-0.9,12.2-1.6,18.3
      c-0.5,4.3-0.4,8.8,0.5,13.3c0.9,4.4,3,7.7,5.6,11c0.1,0.1,0.2,0.3,0.4,0.4c5.1,3.5,5.7,8.1,3.4,13.5c-1,2.3,1.6,5.9,4.1,6.1
      c1.3,0.1,2.9-0.4,3.1,1.7c-1.5,1.1-3.1,1.6-4.9,1.6c-1.5-0.8-3-1.7-4.2-2.9c-2.9-3.1-3.4-4.5-1.5-8.1c1.7-3.1,1-5.5-1.3-7.7
      c-2.6-2.4-4.6-5.4-6.5-8.3c-2.5-3.7-3-8.1-3.8-12.4c-1.3-6.3,0.6-12.2,2.6-18c1.5-4.4,0.4-8.4-0.9-12.4c-0.6-1.9-2.8-2.9-4.9-3.5
      c-0.3,0-0.5-0.1-0.7-0.3c0-0.5-0.1-1-0.1-1.5C256.2,152,256.1,151.6,256.5,151.3z"/>
    <path class="st20" d="M257,154c0.1-0.6,0.3-1.3,1-0.8c2.6,2.2,5.1,3.8,6,7.9c1.3,6-1.1,10.8-2.4,16c-1.9,7.6-0.3,14.7,2.5,21.6
      c1.2,3,3.6,5.8,5.9,8.3c1.2,1.2,2.2,2.6,3.4,3.9c0.9,1.1,0.9,2.1,0.4,3.5c-0.8,2-2.8,3.7-2.1,6.1c0.8,2.7,2.8,4.6,5.3,5.8
      c0.7,0.4,1.1,0.4,0.7,1.2c-1.7,1-3.6,1.2-5.4,1.8c-0.6-1.6-1.3-3-3.4-2.3c-0.8-1.2-1.7-2.5-2.1-3.9c-0.6-3.5-0.6-7,0.5-10.4
      c0.5-1.8,0.1-3.4-1.2-4.8c-5.2-5.3-7.3-12-8.9-18.9c-0.4-1.6-0.2-3.3-0.1-4.9c0.1-4.9,1.2-9.6,2.9-14.2c1.9-5.4,1.9-10.7-3.1-14.8
      C256.8,154.7,256.7,154.3,257,154z"/>
    <path class="st21" d="M26.2,52.5c10.2-7,21.2-12.4,32.5-17.3c3.3-1.4,6.6-3,10.1-4c1.5-0.6,3.1-0.7,4.4-1.7l-0.1,0
      c1.1-0.2,2.1-0.6,3.1-1c0.5-0.2,1.1-0.5,1.4,0.1c0.4,0.7,0,1.2-0.6,1.6c-1.5,0.9-3,1.6-4.6,2.3c-8.2,3.3-16,7.6-24.1,11.2
      c-8,3.5-15.3,8.5-21.2,15.2c-1,1.1-1.4,2.4-0.7,3.7c1.3,2.2-0.1,3.2-1.7,3.9c-1.9,0.9-3.7,1.8-5.5,3c-1.3,0.7-2.5,1.5-3.8,2.2
      c-0.5-0.6-0.6-1.5-1.1-2.2c-1.2-1.5-0.8-2.9-0.1-4.5c1.9-4.6,6.1-6.8,9.5-9.7c0.8-0.7,1.8-1.2,2.6-1.9
      C27.2,52.9,26.3,52.8,26.2,52.5z"/>
    <path class="st22" d="M104.1,19.3c10.2-3.4,20.8-5.7,31.3-8c4-0.9,7.9-1.9,12-2.3c-0.4,1.8-2.1,1.3-3.3,1.7c-1,0.3-2.1,0.7-2.9,0.5
      c-0.7,0-0.5,0.4-0.5,0c0,0,0.1,0,0.2,0c11-0.6,21.8-2.5,32.5-5.2c3.2-0.8,6.6-0.7,9.8-1.5c0,0,0.1-0.2,0-0.2c0-0.1-0.1-0.2-0.1-0.2
      c2.6-0.7,5.2-0.5,7.8-0.5c0.1,0.1,0.2,0.3,0.2,0.4c-0.1,1.7-1.6,1.8-2.7,2.2c-5.2,1.7-10.6,2.3-15.9,3.6c-4.2,1-8.5,2.1-12.5,3.7
      c-0.6,0.2-1.2,0.3-1.8,0.3c-2,0.1-4-0.3-6,0.3c-0.4,0.2-0.8,0.4-1.2,0.5c-0.4,0.2-0.9,0.2-1.3,0.3c-3.6,1-7.1,0.3-10.7,0.1
      c-2-0.1-4.1-0.3-6.2,0.3c-0.4,0.2-0.8,0.3-1.3,0.4c-6.4,1.5-12.9,2.6-19.1,4.9c-5.8,2.2-11.8,4-17.7,6.1c-8,2.8-15.2,6.7-22,11.7
      c-0.4,0.3-0.9,0.7-1.4,0.9c-1.3,0.3-2.6,0.5-3.9-0.1c-0.9-1.4,0.3-1.9,1.2-2.5c9.2-5.4,18.5-10.7,28.9-13.8
      c4.6-1.4,9.3-2.9,13.9-4.4c-1.6,0.5-3.2,0.9-4.9,1.4C105.7,19.7,104.9,20.2,104.1,19.3z"/>
    <path class="st23" d="M19.3,69.5c1.6-1.9,3.8-2.6,5.8-3.8c1.1-0.6,2-1.1,0.7-2.6c-1.2-1.4-0.9-3.3,0.3-4.5c3.7-3.6,7.7-6.9,11.9-10
      c6.6-4.6,14.1-7,21.1-10.7c5.7-3,11.7-5.5,17.6-8.2c0.3-0.2,0.6-0.4,0.5-0.9c-1.4-0.2-2.6,1.1-4.1,0.7c3.7-2.2,8.1-2.3,11.9-4.3
      c0.8-0.3,1.6-0.1,2.4-0.5c0.5-0.3,1.3-0.6,1.6,0.2c0.3,0.8-0.7,1-1.2,1.2C80,29,73.4,34.5,65.6,37.5c-2.6,1-5,2.5-7.6,3.6
      c-0.9,0.6-1.9,0.9-2.8,1.4c-4.7,2.8-9.6,5.4-13.8,9c-2.7,2.4-3.2,3.7-1.2,6.8c0.6,1,0.5,1.7-0.4,2.2c-1,0.6-2,1.2-3.2,1.4
      c-3.1,0.3-5.9,1.6-8.5,3.3c-0.2,0.2-0.4,0.4-0.5,0.6C24.8,67.1,22.1,68.3,19.3,69.5z"/>
    <path class="st24" d="M33.5,77.8c2.1-1.4,3.5-3.2,4.1-5.9c0.4-2.3,3-3,5.2-4.3c-2.4-0.9-4.3,0.6-6.2,0.1c5.2-1.7,10.7-2.2,16.1-2.5
      c12.4-0.7,24.7,0,36.9,1.6c0.3,0,0.5,0.2,0.7,0.3c-1,1.3-2.3,0.2-3.5,0.4c0.6,0.1,1.4-0.2,1.2,0.8c-6.1-0.5-12.2-1.1-18.4-0.8
      c-10.9,0.7-21.1,3.8-31.1,8.1C36.9,76.5,35.2,77.1,33.5,77.8z"/>
    <path class="st12" d="M301.2,157.9c-5.8-5.6-5.4-13.7-8.1-20.5c-1.4-3.6-2.9-7.2-5.4-10.2c-1.3-1.6-2.1-3,0.4-4.3
      c-1-2.5-2.2-4.9-4.2-6.9c-0.7-0.8-1.5-1.6-1.3-2.8c-0.9-3.3,0.8-6.2,1.2-9.4c0.3,1.4,1.8,2.2,1.6,3.8c-0.3,3.3,0.5,6.2,3.2,8.2
      c1.7,2.7,2.5,5.7,3.6,8.7c4.1,10.7,7.6,21.6,10.9,32.6c0.2,0.7,0.5,1.4,0.2,2.1C302.2,159.4,301.7,158.6,301.2,157.9z"/>
    <path class="st25" d="M128.9,70.8c0.4-2.5-1.7-2.8-3.2-3.4c-4.6-1.7-9.3-2.7-14.1-3.6c-5.2-1-10.1-2.5-14.8-4.9
      c-1.8-0.9-2.9-2.4-4.2-3.8c-1.1-1-0.6-2.1,0.4-2.7c1.7-0.9,3.5-2,5.6-1.3c0.6,0.2,1.2,0.3,1.8,0c0.7-0.4,1.6-0.8,1.6-1.7
      c0-0.8-0.9-1.3-1.5-1.4c-3-0.6-5.7-2.3-8.8-2.5c-0.8-0.1-1.9-0.1-2.2-0.8c-1.7-3.7-5.2-2.3-8-3c-0.7,0.6-1.4,0.6-2.2,0.5
      c-1.4-0.6-3.2,0.2-4.4-1.2c0.3-1.2,1.3-1.2,2.2-1.2c5.2,0.2,10.3,0.3,15.3,2c1.3,0.8,2.8,1.3,4.4,1.3c1,0,1.9,0.3,2.8,0.7
      c0.3,0.1,0.5,0.2,0.7,0.4c1.3,1.4,2.9,2.4,4,4c1.7,2.4,1.4,3.8-1.1,5.3c-2.5,1.5-2.5,2,0,3.6c5,3.1,10.6,4.4,16.2,5.8
      c4,1,7.9,2.2,11.1,4.9c1,0.8,2.3,1.8,1,3.3c-0.1,0.1-0.2,0.1-0.4,0.2C130.3,71.2,129.5,71.4,128.9,70.8z"/>
    <path class="st10" d="M267.4,155.6c-1.2-2.1-2.8-3.2-5.3-3.4c-2.2-0.2-3.7-1.6-4.7-3.5c-0.4-0.8-1-2-1.5,0c-1-6-2.5-11.8-5.4-17.2
      c-0.2-0.3-0.4-0.6-0.6-0.9c-0.6-0.8-1.6-1.5-1-2.8c4.9,2.6,9.4,5.7,14.1,8.6c0.5,0.3,1,0.8,1,1.5
      C263.8,144,265.7,149.8,267.4,155.6z"/>
    <path class="st20" d="M241.8,30.3c0,0.4,0.2,1.1,0,1.3c-0.5,0.4-0.7-0.2-1-0.5c-3.3-3.9-6.7-7.5-11-10.3c-0.9-0.6-1.8-1.2-2.9-1.4
      c-3.1-0.4-5.4-2.3-7.9-4.1c-3-2.2-6.7-3.2-10.1-4.6c-2.9-1.2-5.5-0.5-8.3,0c-8.1,1.5-16.3,2.8-23.9,6.1c-1.9,0.8-3.5,0-5.3-0.1
      c-0.2-0.7,0.4-0.9,0.9-1.1c5.3-1.9,10.6-3.8,16.1-4.8c3.7-0.7,7.3-1.7,10.6-3.1c5-2.1,9.4-1,14.1,0.8c6.8,2.6,12.5,6.7,18.2,10.9
      c1.2,1.2,2.5,2.3,3.7,3.5c0.8,1.1,2,2,2.8,3.2c0.3,0.4,0.7,0.7,1,1.1c0.6,1,1.6,1.7,2.2,2.7C241.4,29.9,241.6,30.1,241.8,30.3z"/>
    <path class="st26" d="M26.2,52.5c0.6-0.1,1.2-0.2,2.1-0.3c-0.7,1.5-2,2.1-3,2.9c-3.8,3.2-8.4,5.4-10.5,10.4c-0.7,1.7-0.8,2.8,0.5,4
      c0.8,0.7,0.6,1.4,0.2,2.2c-3.3,2.5-6.4,5.2-9.2,8.2c-0.4,0.2-0.5,0.6-0.7,0.9c-0.3,0.3-0.6,0.6-1,0.8c-1.5,0.9-2.1,0.5-1.9-1.2
      c0.1-0.8,0.1-1.6,0.2-2.3c0.2-1.2,0.5-2.4,0.7-3.6c0.9-1.7,1.8-3.3,2.7-5c4-5.3,8.7-9.8,14.5-13.2c1-0.2,1.6-1.1,2.4-1.6
      C24.2,54,25.2,53.3,26.2,52.5z"/>
    <path class="st27" d="M265.2,66.8c-1.7,0.6-3,2.4-5.2,1.7c-1.8-0.6-2.8-2.1-3.7-3.4c-3-4.5-6.5-8.4-10.5-11.9
      c-1.3-1.2-2.2-2.6-3.1-4.1c-0.3-0.5-0.6-1-0.1-1.5c0.5-0.5,1,0,1.5,0.2c2.2,1.4,4.3,2.8,6.5,4.3c3.4,2.1,6.5,4.7,10.3,6.3
      c2.5,1.1,3.3,4.6,4.5,7.2C265.5,66,265.5,66.4,265.2,66.8z"/>
    <path class="st28" d="M231.5,19.2c-2.5,0.4-3.8-1.7-5.3-2.9c-5.4-4.2-11.6-6.9-18-9c-3-1-5.6,0-8.4,0.9c-3,1-6,2.2-9.1,2.8
      c-5.3,1-10.4,2.4-15.4,4.2c-1.3,0.5-2.5,0.9-3.8,1.3c0,0-0.1,0.1-0.1,0.1c-2.2,0.1-4.3,0-5.4-2.4c0.1-0.1,0.3-0.3,0.5-0.3
      c9.4-0.8,18.1-4.6,27.2-6.9c2.9-0.7,5.6-2.1,8.5-2.6c4.5-0.7,8.6,0.9,12.6,2.5c0.6,0.2,1.1,1,1.9,0.4
      C222.4,10.4,227.5,14.1,231.5,19.2z"/>
    <path class="st29" d="M72.8,83.2c-2.8-0.7-3.3-1.8-1.7-4.1c1.5-2.3,3.3-4.4,1.1-7.3c-0.9-1.2,0.5-1.1,1.2-1.1
      c3.6-0.1,7.3-0.1,10.9-0.1c1.1,0,2.3-0.1,3.3,0.5c-3.1,0.9-3.5,3.7-4.7,6.2c0.5,0.8,1.8,0,2.3,0.9c-3.3,1.3-6.5,2.5-9.8,3.8
      C74.6,82.5,73.6,82.5,72.8,83.2L72.8,83.2z"/>
    <path class="st30" d="M138.7,72.8c-0.8,0-1.5,0-2.3,0.1c-1.9-0.2-3.7-0.8-5.4-1.6c0,0,0.1-0.2,0.1-0.2c0.6-0.3,1.2-0.5,1.9-0.4
      c1.3,0.4,2,0.1,1.6-1.4c-0.3-1-0.9-1.8-1.6-2.5c-1.8-1.8-3.7-3.5-5.9-4.8c-3.7-2.4-7.2-4.8-9.3-8.9c-0.6-1.2-1.9-1.9-3.1-2.6
      c-1.9-1-3-2.5-3-4.8c0.1-0.2,0.3-0.4,0.6-0.5c2.7,0.2,5,1.5,7.5,2.2c1,0.3,1.6,1.1,1.7,2.2c0.3,3.2,2.2,4.8,5.1,6
      c6.3,2.5,9,8.3,12,13.8C139.2,70.3,139.7,71.7,138.7,72.8z"/>
    <path class="st15" d="M208.5,27.5c1.4-0.9,1.8-2.1,1.5-3.7c-0.3-1.8,0.7-2.7,2.4-1.9c5.3,2.5,10.7,4.8,14.9,9
      c1.8,1.8,3.1,4.1,4.7,6.1c-4.2-2.2-8.6-3.9-13-5.6c-2.9-0.2-5.8-0.9-8.6-1.7C209.5,29.1,208.5,28.7,208.5,27.5z"/>
    <path class="st31" d="M170,89.1c-4.2-0.6-8.1-2.5-12.1-3.7c-4.5-1.3-8.6-4.4-13.4-3.8c-4.9,0.7-9-0.6-13-3.1
      c-1.3-0.8-2.9-0.8-4.5-0.8c-8.4-0.4-16.5-2-24.5-4.5c-1.5-0.5-2.8-0.4-4.2,0.1c0.3-1.1,0.9-1.9,1.7-2.7c1-0.7,2.1-0.4,3.2-0.2
      c8.5,1.8,17,3.4,25.5,5.2c1.2,0.3,2.4,0.8,3.6,1.2c3.1,2.1,6.5,3,10.2,3.1c1,0,2,0.1,2.9,0.5c7.7,1.9,14.9,4.8,22.3,7.5
      C168.4,88.3,169.2,88.7,170,89.1z"/>
    <path class="st32" d="M216.7,7.4c0.5,1.9-0.7,0.6-1,0.5c-4.1-1.3-8.1-3.1-12.5-2.7c-3.9,0.3-7.3,2.3-11,3.3
      c-4.2,1.1-8.2,2.6-12.5,3.3c-0.4,0.1-0.9,0.2-1.3,0.4c-4,1.4-7.9,3.4-12.4,2.4c-1.4,1.1-2.8,0.1-4.2,0c-1.1-0.5-2.3-0.2-3.3-0.9
      c-0.2-0.2-0.3-0.5-0.1-0.8c0.5,0,1.1,0,1.6,0c0.2-0.2,0.5-0.3,0.7-0.3c8.6,0.8,16.1-3.5,24.2-4.9c4.1-0.7,7.8-2.8,11.4-3.6
      c-1.4,0.1-3.4,0.8-5.3-0.4l0-0.2C199.9,2.7,208.8,1.5,216.7,7.4z"/>
    <path class="st33" d="M5.7,80.4c0.2-0.1,0.5-0.3,0.7-0.4c0.1,0.7-0.6,1.7,0.5,2.1c0.8,0.3,1.4-0.2,1.9-0.7c1.2-1.2,2.3-2.5,3.9-3.3
      c-0.6,2.4-3.2,3.6-3.8,6.1c-0.5,2.1,1.5,6.1,3.5,6.1c-2.2,2.1-4.7,3.9-6.7,6.3c-0.7,0.9-1.6,1.7-1.7,3c0,0.3-0.2,0.5-0.5,0.6
      c-1.1-5.8-2.1-11.6-1.1-17.6c0.4,0.2,0.6,1.3,1.3,0.4C4.4,82,5.3,81.4,5.7,80.4z"/>
    <path class="st34" d="M183.3,4c0.8,0.2,1.8-0.1,3.2,0.9c-8.4,1-16.1,2.2-23.7,4.3c-7.7,2.1-15.6,1.9-23.5,2.3
      c2.6-1.2,5.7-0.9,8.2-2.5c8.2-1.9,16.6-3,25-3.8c1.4-0.6,3,0.2,4.5-0.5c0.3,0,0.6,0,0.9-0.1c1.5-0.6,3.1,0.2,4.5-0.5
      C182.6,4.1,183,4,183.3,4z"/>
    <path class="st35" d="M20.8,87.4c0.5,0.2,2.1-0.4,1,1.2c-1.6,2.2-2.8,4.7-5.9,5.6c-3.6,1.1-6.9,8.1-6.6,12.1
      c0.3,3.6,0.8,7.2,1.6,10.7c0.1,0.4,0.3,1-0.2,1.2c-0.6,0.3-0.8-0.6-1.3-0.7c0,0,0,0,0,0c-0.5-1.5-0.7-3.1-1.8-4.4
      c-1.1-2.3-2.1-4.6-2.6-7.1c2.1-3.7,3.7-7.6,5.3-11.6C13.5,91.6,17.1,89.4,20.8,87.4z"/>
    <path class="st36" d="M57.5,40.7c2.9-1.4,5.6-3.1,8.6-4.3c4.5-1.8,8.7-3.9,12.6-6.5c3.1-2,6.8-2.7,10.3-4.9c-1.7-0.1-2.8,0.7-4,0.3
      c6-2.2,11.8-4.6,18.2-5.5c0.3,0,0.6-0.4,0.9-0.6c2.9,0.4,5.5-1.6,8.5-1.2c-3.2,1.1-6.4,2.2-9.6,3.3c-8.8,3.1-17.9,5.7-25.8,10.8
      c-3.3,2.1-7.1,3.4-10,6.2c-1.2,1.5-3.3,0.9-4.7,1.7C60.9,40.6,59.3,41.8,57.5,40.7z"/>
    <path class="st37" d="M309.8,187.9c-0.5,0.5-0.4,1.5-1.3,1.5c-0.9,0-1.2-0.7-1.4-1.4c-1.5-4.4-4.2-8.2-5.4-12.7
      c-0.1-0.5-0.3-1.1-0.7-1.5c-4.2-4.5-6.1-10-7-15.9c1.7,0.3,2.7,1.3,2.8,3.1c4.3,7.7,9.6,15,12.5,23.4
      C310,185.4,309.8,186.7,309.8,187.9z"/>
    <path class="st38" d="M291.4,222.7c-1.7-0.7-0.3-1.2,0.2-1.5c3.8-2.8,7.7-5.7,11.6-8.4c3.1-2.2,6.6-4.1,8.6-7.7c0,0,0.2,0,0.2,0
      c0.1,0,0.1,0.1,0.2,0.2c-0.1,2.9-1.8,4.9-3.6,6.8c-4,4.3-9.1,7.1-14.4,9.4C293.3,222,292.2,222.1,291.4,222.7L291.4,222.7z"/>
    <path class="st39" d="M87.4,80.3c0.7-0.2,1.4-0.4,2.1-0.6c0.3-0.1,0.7-0.1,1.7-0.2c-5.1,6.4-9.9,12.4-14.6,18.4
      c-1.5-0.4-0.8-1.3-0.5-2.1c1.5-4.4,3.2-8.6,5.9-12.4C83.4,81.4,85.6,81.3,87.4,80.3z"/>
    <path class="st40" d="M132.2,77.1c-7.8-2.8-16.2-2.7-24.1-4.9c-2.7-0.7-5.4-1.2-8.1-1.7c0-2.1,1.4-1.7,2.6-1.4
      c10.2,2,20.4,4.3,30.4,7.3c3.6,1.1,7.2,2.3,10.8,3.4C139.5,80.6,135.8,79.2,132.2,77.1z"/>
    <path class="st41" d="M68.9,115.3c-0.9-1-0.4-2-0.2-3c0.7-3.8,2.7-7.2,3.7-11c1.1-4.4,2.5-8.7,1-13.3c-0.6-1.7,1-2.1,2.1-2.7
      c3.1,2.8,1.9,6.1,1.1,9.2c-0.6,2.4-2.1,4.6-2.2,7.1C72.5,106.2,70.7,110.7,68.9,115.3z"/>
    <path class="st42" d="M308.7,184.6c-1.6-3.5-3.5-6.9-4.7-10.6c-0.6-1.9-2-3.4-3.3-4.9c-2.1-2.3-3.3-5.1-3.9-8.2
      c3.1,1.3,5.4,3.7,8.1,5.6c-0.4,2.4,0.2,4.7,1,6.9c0.8,2.1,1.4,4.2,2.2,6.4c0.1,0.3,0.1-0.1,0.1-0.1c-0.6-0.6-0.5-1.3,0.2-1.9
      c1,1.3-0.1,3.1,1.1,4.4C309.4,183.1,310.4,184.2,308.7,184.6z"/>
    <path class="st43" d="M74.4,101.7c-0.5,0.2-1.1,0.4-0.8-0.6c0.8-2.4,1.8-4.7,2.5-7.1c0.8-2.9,1-5.9-0.6-8.6c0-0.2,0-0.3,0-0.5
      c3.8-2,7.7-3.7,12-4.5c-5.3,2.5-7.9,7.1-9.4,12.4c-0.5,1.7-2.3,3.1-1.5,5.1C75.8,99.1,75.1,100.4,74.4,101.7z"/>
    <path class="st44" d="M85.3,78.2c-1.1,0.1-2.3,0.3-3.6,0.4c0.7-2.5,2.1-4.6,2.8-6.9c0.4-1.3,2.1-0.3,3.2-0.7c1.5,0.9,3.4,0,4.8,1.1
      c-0.4,0.6-1,0.7-1.7,0.8c-0.9,0.2-1.8,0.5-1.8,1.6c0,1.1,0.9,1.2,1.7,1.4c0.5,0.1,1.1,0.2,1.4,0.8C89.8,77.2,87.5,77.7,85.3,78.2z"
      />
    <path class="st45" d="M10.4,94.5c1,0.5,0.5,1.2,0.2,1.8c-1.5,2.8-3,5.7-3.7,8.9c-0.2,1.1-0.8,1.3-1.7,0.9c-0.9-1.9-1.4-3.9-1.6-6
      c0.2-0.2,0.3-0.4,0.5-0.6C6.5,98.3,8.1,95.9,10.4,94.5z"/>
    <path class="st46" d="M63.4,155.1c-1.5-2.3,0.1-4.5,0.3-6.7c0.4-4.2,1.4-8.3,1.4-12.5c0-1.2,0.1-2.3,1.1-3.2c0,0.5,0,1,0,1.5
      c0.4,1.2,0.3,2.3,0,3.5C66.3,143.7,65.4,149.5,63.4,155.1z"/>
    <path class="st47" d="M178.5,87.6c0-0.3-0.2-0.7-0.1-0.8c0.7-0.7,5.8-0.8,6.5-0.2c0.2,0.2,0.4,0.4,0.5,0.6c1.1,1.3,2.7,2.1,3.6,3.8
      c-0.9-0.1-1.8-0.1-2.6-0.2C183.9,89.8,181.2,88.7,178.5,87.6z"/>
    <path class="st48" d="M308.3,177.8c-0.1,0.8-0.1,1.6-0.2,3.1c-2.2-4.6-3.6-8.7-4.2-13.1c-0.1-0.7,0.2-1.2,1-1.3
      c1.2,1.2,1.2,2.8,1.6,4.2C307.2,173.1,307.7,175.5,308.3,177.8z"/>
    <path class="st49" d="M92,76.7c-0.6,0-1.2-0.1-1.9-0.1c-1.1,0-2.2,0.1-2.1-1.6c0.1-1.4,0.2-2.7,2.1-2.8c0.8,0,1.6,0,2.4-0.1
      c0.6,0,1.2,0.1,1.7,0.5c-1.2,0.9-3,1.6-0.8,3.3C93.2,76.7,92.6,76.7,92,76.7z"/>
    <path class="st50" d="M97.5,68.3c0.5,0.1,1.6-0.2,1.2,0.8c-0.3,0.8-0.8,2-2,1.7c-1.4-0.3-3-0.5-4.2-1.3c-0.9-0.4-2-0.6-3.2-1.3
      c1.9-0.7,3.4-0.6,4.9-0.3c0.2-0.1,0.3,0,0.4,0.1C95.5,68.5,96.5,67.9,97.5,68.3z"/>
    <path class="st51" d="M288.6,115.9c-0.1,0.2-0.2,0.4-0.3,0.7c-2.9-1.6-4.2-5.5-2.9-8.9C287.2,110.1,287.4,113.2,288.6,115.9z"/>
    <path class="st52" d="M93.4,76c-1.1,0.1-2.1,0-2.1-1.6c0-2.3,1.7-1.4,2.9-1.7c0.6,0.1,1.8-0.2,1.1,1C94.8,74.6,94,75.3,93.4,76z"/>
    <path class="st53" d="M132.2,77.1c3.8,1.3,7.5,2.8,11.6,2.7c0.6,0,1.2-0.1,1.5,0.6c-3.9,0-7.9,0.3-11.4-1.9
      C133.2,78.1,132.5,77.9,132.2,77.1z"/>
    <path class="st54" d="M210.2,29.1c2.9,0.9,5.9,1,8.7,2.3c-0.6,0.1-1.4,0-1.7,0.7c-2.3-0.6-4.7-1.1-7-1.7c-0.3,0.1-0.5,0.1-0.7-0.2
      C209.3,29.5,209.4,28.9,210.2,29.1z"/>
    <path class="st55" d="M27.6,65.8c0-0.2,0-0.5-0.1-0.7c1.6-1,3.3-1.7,5.1-2.2c2.9-0.1,5.6-1.7,8.6-1.1c0,0.2,0,0.4,0,0.7
      C36.6,63.6,32.1,64.7,27.6,65.8z"/>
    <path class="st56" d="M54.1,178.7c0.1-0.2,0.1-0.3,0.3-0.5c0.7-0.8,1.8-1.7,2.7-1.3c1,0.4,0.3,1.7,0.4,2.6c0.1,0.5,0,1.1,0,1.6
      C56.2,180.6,55.2,179.6,54.1,178.7z"/>
    <path class="st9" d="M99.4,213.9c-4.6,0-9.1,0-13.7,0c-0.9,0-2-0.4-2.7,0.6c-0.4-0.3-0.6-0.6-0.4-1.1c0,0,0,0,0,0
      C88.2,213.5,93.8,212.9,99.4,213.9z"/>
    <path class="st57" d="M5.7,80.4C5.9,82.5,4,83.1,3,84.5c-0.9-0.6-0.4-1.5-0.7-2.1c0.2-1.5,0.3-2.9,0.5-4.4c0.8,1.1-0.2,2.3,0.4,3.6
      C4,81.2,4.9,80.8,5.7,80.4z"/>
    <path class="st58" d="M94.1,67.8c-1.3,0-2.6,0-4.4,0c1.2,0.7,1.9,1.2,2.6,1.6c-1.5-0.1-3-0.4-4.4-1c-0.3-0.7-1.1-0.4-1.9-1
      c1.6-0.1,2.9-0.1,4.2-0.2C91.6,67.3,93,67.1,94.1,67.8z"/>
    <path class="st59" d="M308.7,184.6c0.9-0.6,0.5-1.6,0.7-2.3c0.8,1.6,1.1,3.2,1.1,5c-0.2,0.2-0.4,0.4-0.6,0.6
      C309.5,186.8,309.1,185.7,308.7,184.6z"/>
    <path class="st60" d="M248.9,127.7c0.3,0.9,1.3,1.6,1,2.8l-0.2,0c0,0-0.3,0-0.3,0c-1.5-0.7-1.9-1.9-1.6-3.4
      C248.2,127.4,248.5,127.6,248.9,127.7z"/>
    <path class="st7" d="M226,36.7c-2.1,0-3.6-1.3-5-2.7C222.9,34.6,224.6,35.4,226,36.7z"/>
    <path class="st8" d="M7.6,113.2c1.6,1,2,2.6,1.8,4.4C8.4,116.3,8.2,114.6,7.6,113.2z"/>
    <path class="st23" d="M73.2,29.6c-1.1,1.5-2.8,1.7-4.4,1.7C70.2,30.4,71.7,29.9,73.2,29.6z"/>
    <path class="st17" d="M238,25.9c-1.2-0.8-2.4-1.6-2.8-3.2C236.5,23.5,237.5,24.5,238,25.9z"/>
    <path class="st10" d="M265.2,66.8c0-0.4,0-0.8,0.1-1.2c1,1.1,1.8,2.4,2.1,4C266.1,69,266.2,67.5,265.2,66.8z"/>
    <path class="st7" d="M229.2,38.4c-1.3-0.3-2.5-0.6-3.3-1.8C227.3,36.9,228.5,37.3,229.2,38.4z"/>
    <path class="st17" d="M241.2,29.7c-1-0.7-2-1.3-2.2-2.7C240.1,27.6,240.9,28.5,241.2,29.7z"/>
    <path class="st22" d="M176.9,4.7c-1.4,1-3,0.4-4.5,0.5C173.9,4.5,175.4,4.7,176.9,4.7z"/>
    <path class="st22" d="M182.3,4.1c-1.4,1-3,0.4-4.5,0.5C179.3,4,180.8,4.1,182.3,4.1z"/>
    <path class="st61" d="M256.4,53.2c0.4-0.2,0.8-0.4,1.1-0.6c0.7,0.1,0.8,0.7,1.1,1.1c0.2,0.6-0.1,0.7-0.6,0.7
      C257.5,54,257,53.6,256.4,53.2z"/>
    <path class="st33" d="M14.4,88.6c0.6-1.1,1.6-1.5,2.8-1.6C16.4,87.8,15.6,88.5,14.4,88.6z"/>
    <path class="st12" d="M291.4,222.7c0.7-1,1.7-1.2,2.8-1.1C293.4,222.2,292.5,222.7,291.4,222.7z"/>
    <path class="st8" d="M66.3,137.8c0-1.2,0-2.3,0-3.5C66.8,135.4,66.8,136.6,66.3,137.8z"/>
    <path class="st21" d="M23.2,54.8c-0.5,0.9-1.2,1.7-2.4,1.6C21.4,55.7,22.1,54.9,23.2,54.8z"/>
    <path class="st8" d="M72.8,83.2c0.6-1,1.6-1.2,2.7-1.2C74.7,82.8,73.8,83.1,72.8,83.2z"/>
    <path class="st15" d="M312.6,205.1c0.1-0.9-0.3-1.9,0.6-2.6C313.2,203.4,313.4,204.4,312.6,205.1z"/>
    <path class="st62" d="M258.1,54.4c0.2-0.2,0.4-0.4,0.6-0.7c0.5,0.4,1.1,0.8,0.6,1.4C258.9,55.4,258.3,54.8,258.1,54.4z"/>
    <path class="st63" d="M228.8,305.7c-0.2-0.3-0.4-0.7-0.6-1c0.4-0.1,1-0.5,1.3,0.1C229.5,304.9,229,305.3,228.8,305.7z"/>
    <path class="st58" d="M97.5,68.3c-1,0-2,0.4-2.9-0.5C95.6,67.8,96.6,67.7,97.5,68.3z"/>
    <path class="st4" d="M257.1,155.1c2.9,0.9,4,3.4,4.5,6c0.7,3.4,0.1,6.7-1.2,10c-1.8,4.4-2.4,9-2.5,13.8c-0.1,7,2.3,13.1,5.8,19
      c0.8,1.4,1.9,2.6,3.1,3.7c1.5,1.5,1.9,3.1,1.3,5.2c-0.9,2.9-1.1,5.9-0.7,9c0.1,0.5,0,1.1-0.5,1.5c-1.4-1.8-2.2-3.8-2.9-5.9
      c0.4-4.7-1.1-8.6-3.9-12.5c-4.1-5.7-5.5-12.7-5.9-19.8c-0.4-5.8,1.2-11.3,3.3-16.7c1.4-3.7,1.4-7.2-0.6-10.7
      C256.8,156.8,256.5,155.9,257.1,155.1z"/>
    <path class="st64" d="M257.1,157.8c1.8,0.6,1.7,2.2,1.9,3.5c0.4,3-0.2,5.8-1.3,8.6c-3.2,7.5-3.9,15.2-1.6,23
      c1.4,4.8,2.5,9.6,6.2,13.6c2.7,2.9,3.5,6.8,1.8,10.8c-4-7.7-8.6-15.1-11.6-23.3c-2.3-6.3-1-12.8,0.9-19c1.3-4.3,2.6-8.5,3.3-12.9
      C257.2,160.8,256.3,159.2,257.1,157.8z"/>
    <path class="st65" d="M251.1,172.1c-0.6-1.1-0.9-2.2-0.3-3.3c1.8-3.6,2.1-7.4,1.9-11.3c-0.1-2.3-0.1-4.7,0.6-6.9
      C254.6,157.9,254.2,165.1,251.1,172.1z"/>
    <path class="st12" d="M257.1,157.8c-0.3,1.4,0.5,3-0.5,4.3c0-2.7,0-5.4,0-8.2c0.2,0,0.3,0,0.5,0c0,0.4,0,0.7,0,1.1
      C257.1,156,257.1,156.9,257.1,157.8z"/>
    <path class="st65" d="M252.2,143.1c-0.9-1.4-1.2-2.9-1-4.5C251.9,140,252.2,141.5,252.2,143.1z"/>
    <path class="st65" d="M252.7,146.9c-1.1-1.2-0.5-2.5-0.6-3.8C252.9,144.2,252.8,145.6,252.7,146.9z"/>
    <path class="st10" d="M256.5,151.3c0,0.4-0.1,0.8-0.1,1.2c-0.6-1.1-0.4-2.2-0.5-3.4C256.7,149.6,256.4,150.5,256.5,151.3z"/>
    <path class="st65" d="M253.2,150.2c-1-1-0.5-2.2-0.5-3.3C253.2,147.9,253.2,149,253.2,150.2z"/>
    <path class="st66" d="M156.5,144.3c-3.5,0.2-6.6,0.8-9.2,3.1c-0.5,0.4-1.2,1.3-1.8,0.7c-0.7-0.7,0-1.5,0.6-2.1
      c1.9-1.9,4.1-3.3,6.9-3.5c6.2-0.5,12.5-0.1,18.6-1.5c2.6-0.6,5.2,0.2,7.6,1.4c2.4,1.3,4.8,2.6,7.2,3.9c0.9,0.5,2,1,1.3,2.2
      c-0.7,1.2-1.8,0.4-2.6-0.1c-2.3-1.3-4.6-2.6-6.9-3.9c-1.7-0.9-3.5-1.4-5.5-1.3c-0.1,1.3,0.6,2.3,1.1,3.3c1.3,3,1.7,6.1,1.5,9.3
      c-0.5,6.9-5.4,10.6-13.1,10c-0.5,0-0.9-0.1-1.3-0.2c-4.4-0.6-9.1-1.6-10.4-6.5c-1.2-5,0.9-9.4,4.6-13
      C155.5,145.6,156.3,145.3,156.5,144.3z"/>
    <path class="st66" d="M84.2,140.5c-2.9-0.3-5.2,0.4-7.4,1.9c-0.5,0.3-1.1,0.9-1.7,0.3c-0.6-0.8,0-1.3,0.5-1.8
      c1.7-1.6,3.8-2.2,5.9-2.5c4.4-0.7,8.8-0.7,13.2,0.7c1.2,0.4,2.4,0.9,3.3,1.7c0.6,0.5,1.4,1.1,0.8,2c-0.6,0.9-1.4,0.5-2.1,0
      c-0.4-0.3-0.9-0.6-1.7-1.1c0.5,2.6,1.1,4.8,1.3,7c0.6,6.2-3.4,10.7-8.9,10.3c-3.9-0.3-6.2-2.9-6.4-6.7
      C81,148.1,82.3,144.3,84.2,140.5z"/>
    <path class="st67" d="M118.3,170.8c2.8,0.2,5.6,0.4,8.4,0.6c1.4,0.1,3.1,0.1,3.7,1.7c0.7,1.7-0.4,3.2-1.4,4.4
      c-4.9,5.6-18.6,5.1-23.2-0.8c-0.3-0.4-0.5-0.7-0.8-1.1c-1.8-3-1.2-4.2,2.2-4.2C110.9,171.5,114.6,170.5,118.3,170.8z"/>
    <path class="st68" d="M209.6,30.2c0.2,0.1,0.3,0.1,0.5,0.1c0.3,0.2,0.7,0.5,0.8,0.8c1,3.8,2,7.6,2.8,11.4c0.3,1.4-0.9,1.2-1.6,0.7
      c-1.2-1-2.5-1.9-3.3-3.2c-3-4.2-7.8-7.2-8.7-13c-0.3-2.2-3.3-3.6-6-3.2c-4.8,0.7-9.6,1.6-13.8,4.2c-1.2,0.8-2.6,0.9-3.9,1
      c-6,0.4-10.9,3.6-16.2,5.6c-4.8,1.7-9.5,3.7-14.2,5.6c-3.9,1.5-7.4,3.6-11,5.6c-2.6,1.4-5.1,1.5-7.7,0.3c1.2-2.3,3.4-3.5,5.5-4.5
      c5.5-2.7,11.1-5.2,16.5-8.1c2.8-1.5,5.8-2.3,8.9-3c3.1-0.7,6.1-2.3,8.9-3.9c3-1.8,6.1-3.5,9.2-5.3c1.9-0.5,3.6,0.5,5.5,0.8
      c0.2,0.1,0.5,0.1,0.7,0.2c0.6,0.1,1.2,0.9,1.9,0.1c-1.2-2.3-3.5-2-5.5-2.7c-0.9-0.3-2.5,0.3-2.4-1.6c0.5-0.1,1.1-0.2,1.5,0.2
      c0.5,0,1.1,0,1.6,0c4.1,2.2,8.4,2,12.7,0.9c2.7-0.7,5.4-0.6,8-0.3c3.4,0.3,5.9,3.8,5.2,7.3c-0.4,1.6,0.4,2.6,0.9,3.8
      c0.2,0.5,0.7,0.9,1.3,0.8c0.9-0.2,0.7-0.9,0.8-1.5C209.5,28.8,209.1,30,209.6,30.2z"/>
    <path class="st27" d="M176.3,21.5c-1.9,2.3-4.8,3.1-7.2,4.6c-3.2,2-6.5,4.1-10.1,4.9c-3.3,0.8-6.4,1.6-9.4,3
      c-1.9,0.9-3.8,2-5.6,3.2c-2.4,1.5-5.1,2.4-7.7,3.5c-3.3,1.4-6,3.6-9,5.4c-0.9,0-1.8,0-2.7,0c-2.5,0.1-4.7-1.7-7.2-1.5
      c-3-0.9-6.2-1.1-8.7-3.3c1-1.3,2.3-0.8,3.5-0.4c2.1,0.7,3.8,0.4,5.7-0.7c4.8-2.8,10.1-4.3,15.5-5.5c3.8-0.8,7.4-2.4,11.1-3.6
      c4.4-1.4,8.6-3.2,13.1-4.5c3-0.9,6.3-1.6,8.9-3.9c1.5-1.3,3.7-1.6,5.4-2.6c1.4-0.5,2.7,0.2,3.9,0.7C176,21.1,176.2,21.3,176.3,21.5
      z"/>
    <path class="st37" d="M282.6,113.2c1.4,2.5,3.8,4.3,5.1,6.9c0.4,0.9,0.9,1.8,0.4,2.8c-1.4,0.2-1.7-1-2.3-1.9
      c-1.9-2.8-3.9-5.6-6.3-8c-7.5-8.4-16-15.7-25.8-21.4c-1.5-0.9-3.1-1.4-4.9-1.6c-0.9,0.2-1.6-0.1-2.3-0.6c-3.1-2.3-6.8-3.7-9.2-6.9
      c-4.5-2.9-9.5-4.3-14.6-5.5c-1.6-0.4-3.4-0.2-4.7-2.3c5.3,1.2,10.4,1.7,15,4c2,1,2.6,0.4,2.6-1.6c0-3.4,0-6.8,0.3-10.2
      c1.8,1.8,1.5,4.1,1.8,6.2c0.2,1.1,0.1,2.4,0,3.5c-0.1,1.2-1,2.9-0.5,3.5c1.2,1.4,3,2.2,4.7,3.4c1.1-3.2,0.9-6.3,0.9-9.3
      c0-2.4-0.1-4.9-0.2-7.3c0-1.1,0-2.3,1.6-2.3c0,0,0-0.1,0-0.1c1.6,1.4,0.9,3.4,1.1,5.2c0.4,3.1,0,6.3,0.3,9.5
      c0.1,1.3-0.3,2.5-0.9,3.7c-0.4,0.8-0.9,1.7,0.1,2.4c1.8,1.7,4,2.7,6.3,3.5c5.2,1.7,9.6,5,13.9,8.3
      C271.5,102,277.1,107.6,282.6,113.2z"/>
    <path class="st37" d="M108.6,41.2c2.9,0.9,5.8,1.8,8.7,2.7c2.2,0.3,4.1,1.3,6.1,2.2c1.4,0.9,3.1,0.9,4.7,1c0.9,0.1,2,0.3,1.9,1.5
      c-0.1,1.1-1.2,0.9-2,0.8c-1.7-0.2-3.4-0.4-5.1-0.7c-2.7-0.4-5-2-7.7-2.6c-1.2-0.3-2.3-1-3.6-0.9c-4.8-1.6-9.9-0.8-14.7-1.6
      c-1.5-0.2-3-0.3-4.5-0.9c-5.8-1.6-11.6-2.3-17.6-1.6c-0.9,1-2.1,0.8-3.2,0.8c-2.7,0.1-5.5-0.3-8.2,0.3c-1,0.3-2.2,0.2-3.2,0.6
      c-1.8,0.1-3.6,1.3-5.4,0.1c-0.2-0.4-0.4-0.9,0.3-1.2c0.8-0.4,1.7-0.7,2.5-1.1c1.7-0.2,3.3-0.6,4.9-1.2c3.3-0.5,6.6-0.5,9.9-1
      c5.8-0.3,11.5-0.6,17.3,0.5c5,1.4,10.1,1.6,15.3,1.5C106.1,40.4,107.5,40,108.6,41.2z"/>
    <path class="st69" d="M112,45c3.8,0.8,7.4,2.1,10.9,3.7c1.5,0.9,2.2,2.5,3.4,3.6c2.1,1.8,4.8,2.1,7.4,2.6c2.8,0.5,5,1.2,5.2,4.9
      c0.2,3,1.7,6,2.6,8.9c0.2,0.6,0.3,1.2,0.4,1.8c0.2,3.1-0.2,3.4-3.3,2.2c-0.1-4-2.7-6.9-4.8-10c-2.5-3.6-5.5-6.3-9.8-7.6
      c-2.4-0.7-3-3.2-3.2-5.2c-0.1-1.4-0.7-1.9-1.7-2.2c-2.4-0.8-4.8-1.5-7.2-2.3C111.9,45.3,111.9,45.2,112,45z"/>
    <path class="st70" d="M150.3,53.6c2.7,1.1,5.3,0.5,7.9-0.1c2.6-0.6,5-0.5,7.4,0.8c1.9,1,4.1,1.5,6.1,2.1c7.9,2.4,15.3,6,22.6,10
      c0.8,0.5,2.2,0.9,1.5,2.1c-0.6,1.1-1.7,0.1-2.4-0.3c-9.5-5.5-19.9-9.1-30.1-13c-1.4-0.5-2.8-0.5-4.2-0.1c-3.4,0.8-6.7,0.9-9.9-0.9
      C149,53.3,149.6,53.4,150.3,53.6z"/>
    <path class="st71" d="M237.4,82.6c3.8,2.5,7.6,5,11.4,7.5c0.5,1.8,1.7,4.1-0.3,5.1c-1.4,0.7-3-1.3-4.1-2.8c-1.9-2.5-5-3.7-7.1-6
      C236.1,85,235.4,83.8,237.4,82.6z"/>
    <path class="st68" d="M123.4,46.1c-2-0.7-4.1-1.4-6.1-2.2c2.7-0.4,4.8,1.4,7.2,2.1C124.2,46.1,123.8,46.1,123.4,46.1z"/>
    <path class="st72" d="M150.3,53.6c-0.5,0.1-1,0.2-1.2,0.7c-0.5-0.4-1.4-0.4-1.6-1.5C148.7,52.2,149.4,53.1,150.3,53.6z"/>
    <path class="st73" d="M17.5,129c-0.5-1.4,0.3-1.9,0.8-2.5c5.2-6.5,11.2-12.1,17.4-17.6c0.7-0.6,1.5-1.3,2.4-0.5
      c0.8,0.6,0.2,1.4-0.4,1.8C31.2,116,25,121.9,19,128.2C18.7,128.5,18.1,128.7,17.5,129z"/>
    <path class="st37" d="M283.6,221.5c-0.1,0.1-0.2,0.3-0.3,0.4c-0.5,0.7-0.8,1.9-1.9,1.6c-1.3-0.4-0.8-1.5-0.6-2.5
      c1-3.9,0.5-7.6-1-11.3c-0.1-0.2-0.3-0.4-0.4-0.7c-1.3-4.2-1.8-8.5-1.8-12.8c0-3.5-1.6-6.6-2.8-9.9c-0.6-1.7-2-4.7-0.5-5.1
      c1.9-0.6,1.7,2.5,2.5,4c2.8,5,3.8,10.5,3.6,16.2c-0.1,2.2,0.7,4.3,1.5,6.3C284.1,212.2,284.2,216.8,283.6,221.5z"/>
    <path class="st7" d="M245,85.4c-1.4-0.4-0.8-1.3-0.6-2.2c1.3-5.5,0.7-11,0.6-16.5c0-0.7-0.4-1.4-0.6-2.1c0.6,0.1,1,0.5,1.2,1
      c0.2,3.4,0.9,6.8,0.5,10.3c-0.1,1.1,0.3,1.3,1.3,1.4c1.9,0.3,3.3,1.1,3.1,3.5c-0.1,1.8,2.9,2.6,4.4,1.1c1.4-1.4,2.4-1.1,3.8-0.2
      c1.9,1.2,3.9,2.3,5.8,3.5c1.3,0.8,2.4,1.9,3.3,3.2c0.4,0.6,1.1,1.6,0.4,2.2c-0.7,0.6-1.7,0-2.4-0.6c-0.7-0.6-1.2-1.3-1.9-1.9
      c-3.1-2.4-6.3-4.5-10.4-2.8c-2.4,1-4.4,0.4-6.2-1.3c-0.5-0.5-1-1.2-1.9-0.8C244.6,83.8,244.7,84.6,245,85.4z"/>
    <path class="st74" d="M209.6,30.2c-0.4-0.3-0.8-0.7-1.1-1c0.1-0.5-1.6-1.1,0-1.6c0.6,0.5,1.2,1,1.8,1.5
      C209.8,29.3,209.6,29.7,209.6,30.2z"/>
    <path class="st75" d="M282.8,126.9c1.1-0.1,1.1,0.6,0.9,1.1c-1.1,4.2,0.3,8.2,0.6,12.3c0,0.5,0.1,1.1,0,1.6c0,0.8-0.3,1.5-1.2,1.5
      c-1,0-1-0.8-1.1-1.5c-0.3-3.5-0.7-7-1-10.5C280.9,129.6,281.5,128,282.8,126.9z"/>
    <path class="st76" d="M176.2,18.3c2.5,1,5.4,0.8,7.7,2.3c0.8,0.5,2.4,0.8,1.1,2.3c-1.1,1.1-1.8-0.2-2.6-0.4l0,0
      c-2.1-0.6-4.2-1.3-6.4-1.3c-1.3-0.4-2.5-0.8-3.8-1.1c-0.9,0-1.7-0.6-2.5-0.9c-1.2-0.7-2.4-1.3-3.7-1.6c-0.6-0.2-1.2-0.3-1.9-0.3
      c-0.3,0-0.5-0.1-0.8-0.1c-2.2-1.1-4.5-1.4-6.9-1.7c-1.3-0.4-2.6-0.1-4-0.3c-0.9-0.1-2.1,0.2-2.3-1.2c0.3,0,0.7-0.1,1-0.1
      c3.5-1.1,7-0.2,10.6-0.1c1.4,0.2,2.8,0.5,4.1,0.7c1.8,0.7,3.6,1.5,5.5,2.2c0.7,0.7,1.6,1.1,2.6,1.1
      C174.7,18.2,175.6,17.7,176.2,18.3z"/>
    <path class="st14" d="M176.2,18.3c-0.8,0-1.6,0-2.2-0.5c1.3,0.1,2.8-0.5,4,0.5C177.4,18.3,176.8,18.3,176.2,18.3z"/>
    <path class="st55" d="M79.3,41.7c0.7,0,1.5,0,2.2,0c-0.3,0.8-0.6,1.5-0.8,2.3c-0.4,1.7-0.2,3.1,2,3.2c1.6,0.1,3.2,0.7,4.8,0.5
      c0.6-0.1,1.4-0.1,1.5,0.8c0.1,0.7-0.4,1.1-1.1,1.3c-0.3,0.1-0.5,0.1-0.8,0.3c-3.1,1.4-3.3,4-0.4,6c4,2.8,8.1,5.3,12.8,6.7
      c0.6,0.2,1.5,0.1,1.7,1.1c-5.3-0.7-10.7-1.3-16-2.1c-2.2-0.3-3.5-2.2-5.7-2.8c-4-1.1-7.8-1.2-11.7,0.1c-0.7,0.2-1.4,0.1-2.2,0.1
      c-0.1-1.2,1-1.1,1.7-1.3c2.5-0.7,5-1.7,7.7-1.6c0.9,0,2.1,0,2.3-1c0.4-1.3-1-1.5-1.8-2c-0.9-0.6-1.9-0.9-3-1.3
      c-2.8-1.1-3.4-2.9-1.7-5.4c1.5-2.3,3.7-3.6,5.9-5C77.6,41.5,78.5,41.2,79.3,41.7z"/>
    <path class="st77" d="M76.6,41.7c-0.4,1-1,1.6-2,2.1c-1.5,0.8-2.9,2-3.5,3.6c-0.6,1.5-1.5,3.3,1.5,3.7c1.5,0.2,2.9,1.3,4.3,2.1
      c0.8,0.5,2.3,0.9,2,1.9c-0.4,1.1-1.7,1.9-3,1.8c-2.6-0.2-5,0.6-7.4,1.3c-0.9,0.3-2,0.1-2.7,1c-2.6,1-5.4,1.2-8.2,1.1
      c0.5-1.8,2.1-1.3,3.3-1.6c1.8-0.4,3.8-0.5,5.3-1.8c0-0.7-0.5-0.7-0.9-0.9c-3.6-1.2-4.9-4.4-2.9-7.7c1.8-3.1,4.9-4.9,7.9-6.8
      C72.2,41.6,74.4,41.1,76.6,41.7z"/>
    <path class="st78" d="M69.5,41.7c-0.5,1.7-2.1,2.3-3.4,3.3c-2.2,1.9-4.7,3.6-3.8,7.3c0.5,2.1,1.5,2.9,3.4,3c0.8,0,1.8,0,1.9,1.1
      c0.1,0.9-0.8,1-1.4,1.4c-2.7,1.7-5.9,1.1-8.7,2.4c-1.8,0.3-3.7,1.2-5.5-0.1c0-2.8,2.4-4.2,3.6-6.3c0.2-0.4,1.4-1.1-0.2-1
      c-0.1,0-0.1-0.1-0.2-0.2c-0.7-2.2,0.7-3.6,1.9-5c1.6-2,3.9-3.4,6-5.1c0.2-0.1-0.3-0.3-0.1,0c-1,0.7-2,0.7-2.9-0.2
      c0.8-0.6,1.8-0.4,2.7-0.5C65,41.4,67.2,41.2,69.5,41.7z"/>
    <path class="st79" d="M60,42.2c1,0.1,2,0.1,3.5,0.2c-3,3.6-7.8,5.2-8.2,10.2c0,1.7-1.2,2.7-2.1,3.9c-1,1.3-2.1,2.7-2.8,4.2
      c-0.6,0-1.1,0-1.7,0c-1.2,0.5-2.5,0.3-3.8,0.1c-1-1.2-0.2-2.2,0.4-3.2c1.1-1.9,2.4-3.7,4.2-5.6c-1.4,0.8-1.8,2.6-3.7,2
      c-0.3-0.8,0.1-1.4,0.6-2c2.4-2.5,4.6-5.3,7.4-7.4c0.9-0.7,2-0.7,3.1-1.2c0.2,0,0-0.5,0.1-0.2c0,0.1,0,0.1-0.2,0.2
      c-0.9,0.2-1.9,0.9-2-0.8C56.6,43.2,58.3,42,60,42.2z"/>
    <path class="st80" d="M50.5,60.8c-0.2-0.6-0.9-0.9-0.1-1.8c1.8-2,3.3-4.2,4.9-6.4c1.3-0.2,1.7,0.2,0.9,1.4c-1.4,2-2.8,4.1-4.2,6.1
      C51.5,60.4,51.1,60.9,50.5,60.8z"/>
    <path class="st81" d="M44.9,60c1.1,1.3,2.6,0.5,3.9,0.7c-2.5,0.8-5.1,0.8-7.6,1.1c-2.9,0.8-5.7,1.5-8.7,1.6
      c0.1-1.5,1.6-1.4,2.4-1.5c2.9-0.2,5.4-1.5,8.1-2.4C43.7,59.3,44.3,59.6,44.9,60z"/>
    <path class="st82" d="M131.6,15c0.2-0.2,0.3-0.4,0.5-0.6c4.6-0.1,9.1,0.4,13.7,0.5c3,0.1,6.1-0.4,9.1,0.1c0.9,0,1.8,0.3,2.8,0.3
      c0.4,0.4,0.2,0.8-0.1,1.2c-0.6,0.6-1.3,1.1-2.1,1.3c-5.7,1.1-11.4,2.9-17.3,2.4c-6.2-0.6-12.2,0-18.3,1.4
      c-5.7,1.3-11.2,2.9-16.6,5.1c-8.1,3.2-16.5,6-23.4,11.7c-1,0.2-2.1,0.3-3.1-0.1c-1.1-1.4,0.1-2.2,1-2.8c4.7-3.7,9.9-6.3,15.4-8.4
      c6.7-2.5,13.4-4.8,20.2-7.1c6.7-2.3,13.5-3.9,20.6-3.9C133.5,16,132,15.3,131.6,15z"/>
    <path class="st83" d="M131.6,15c1.1,1.2,2.6,0.1,4.4,1c-2.8,0.4-5,1-7.3,1.1c-7.7,0.5-14.9,3.2-22.2,5.7
      c-5.3,1.8-10.6,3.8-15.8,5.9c-4.9,2-9.5,4.6-13.6,8c-0.3,0.2-0.3,0.8-0.5,1.2c-0.4,0.6-1.2,0.5-1.8,0.8c-0.8,0.1-1.6,0-2.4,0
      c-0.3,0-0.5-0.1-0.7-0.3c4-3.9,8.8-6.6,13.8-9c8.2-3.9,17-6.4,25.5-9.5c6.1-2.2,12.6-3.1,18.6-5.3C130.4,14.4,131,14.7,131.6,15z"
      />
    <path class="st84" d="M191.1,3.6c2.2,0,4.4,0,6.6,0c-4.8,2.5-9.7,4.1-14.8,5.4c-5,1.2-10.1,2.3-15,4.2c-2.7,1.1-5.3-0.5-7.9-0.4
      c4.5-2.5,9.5-3.2,14.3-4.3c4.9-1.2,9.9-1.8,14.7-3.3C189.9,4.9,190.9,4.8,191.1,3.6z"/>
    <path class="st85" d="M154.9,15.5c-2.2-1.1-4.4-0.5-6.6-0.2c-5.3,0.7-10.6-0.6-15.9-0.4c-0.1,0-0.2-0.3-0.3-0.4
      c2.6-1.1,5.4-0.6,8-0.4c3.4,0.2,6.8,0.4,10.1-0.1c2.1,1.1,4.5-0.3,6.5,1C156.3,15.5,155.5,15.1,154.9,15.5z"/>
    <path class="st86" d="M71.7,38.4c0.2,0,0.4,0,0.6,0c0.2,0.1,0.2,0.2,0.2,0.3c-0.1,0.1-0.1,0.1-0.2,0.1c-3.3,0.2-6.5,0.4-9.8,0.6
      c1.5-0.8,3.3-0.7,4.9-1.1C68.8,38.4,70.2,38.4,71.7,38.4z"/>
    <path class="st85" d="M161.8,13.8c-3.5,0-7,0-10.6,0.1c0.2-0.2,0.4-0.3,0.6-0.5c2.2-0.5,4.4-0.3,6.5-0.1
      C159.5,13.6,160.7,13,161.8,13.8z"/>
    <path class="st84" d="M158.3,13.3c-2.2,0-4.4,0-6.5,0.1c2.1-1.1,4.4-0.3,6.5-0.5C158.4,13,158.3,13.1,158.3,13.3z"/>
    <path class="st87" d="M43.3,59.7c-2,2.1-4.9,2.1-7.4,2.7c-1.2,0.3-2.5,0.3-3.5,1.1c-1.6,0.5-3.3,1.1-4.9,1.6
      c2.1-2.3,4.9-3.3,7.9-3.7c1.9-0.3,3.4-1.1,4.9-2c-3.9-3.5-2.5-5.3,1.1-8.7c4-3.9,9.1-6,13.6-9c-0.1,0.3-0.1,0.6-0.2,0.9
      c0.4,1,1.5,0.4,2.4,1c-4.4,1.8-6.9,5.6-10,8.7c-0.6,0.6-1.2,1.1-1.1,2.1C46.3,56.8,44.3,57.9,43.3,59.7z"/>
    <path class="st88" d="M133.3,71.1c-0.7,0-1.4,0-2.1-0.1c0.7-3.3-2.4-3.8-4.1-4.7c-4.9-2.4-10.2-3.3-15.5-4.7
      c-3.8-1-7.4-2.8-10.6-5.2c-1.6-1.2-0.9-2.4,0.6-3.1c4.1-2,4.3-2.9,1-6.2c-0.8-0.8-2.4-1-2.5-2.7c0.9-1,2.2-0.3,3.2-0.7
      c0.5-0.1,1.1-0.1,1.6,0c0.9,0.5,1.6,1.2,2.1,2.1c0.9,1.8,2.4,2.9,4.1,3.7c2.2,1,3.4,2.6,2.9,5.2c-0.4,1.8,0.6,2.6,2,3.3
      c4.9,2.5,10.2,4.2,14.6,7.6c1.2,1,2.4,1.9,3.2,3.3C134.2,69.7,134.9,70.7,133.3,71.1z"/>
    <path class="st30" d="M104.9,43.9c-0.5,0-1.1,0-1.6,0c-1.2,0.7-2.6-0.2-3.8,0.5c-0.9-0.2-1.8-0.4-2.7-0.5c-0.2-0.1-0.2-0.2-0.2-0.3
      c0.1-0.1,0.1-0.2,0.2-0.2c4.2,0.2,8.4-0.7,12.6,0.5c0.9,0.3,1.8,0.7,2.7,1.1c0,0.2,0,0.4,0,0.5l0,0
      C109.3,46.3,107.2,44.9,104.9,43.9z"/>
    <path class="st18" d="M69.5,41.7c-2.2,0-4.5-0.1-6.7-0.1c4-1,8-0.2,12.1-0.5c1.5,0.4,3.1-0.5,4.5,0.6c-0.9,0-1.8,0-2.7,0
      C74.2,41.7,71.8,41.7,69.5,41.7z"/>
    <path class="st89" d="M96.7,43.4c0,0.2,0,0.3,0,0.5c-1.5,0-3.1-0.1-4.3-1.2C93.9,42.7,95.4,42.9,96.7,43.4z"/>
    <path class="st89" d="M99.5,44.4c1.2-1,2.5-0.3,3.8-0.5c-1,1-2.2,0.4-3.3,0.5l-0.3,0L99.5,44.4z"/>
    <path class="st89" d="M104.9,43.9c2.5-0.2,4.7,1.4,7.1,1.6c0.6,2.2,1.5,3.9,3.8,4.8c1.1,0.4,2.4,1.4,2.8,2.5
      c1.8,5,6.7,6.6,10.2,9.6c2.4,2.1,5.5,3.4,6.5,6.9c0.2,0.8,0.5,1.3,0,1.9c-0.7,0.8-1.4,0.7-2.1,0c0.8-2.5-1.2-3.4-2.6-4.5
      c-4.7-3.7-10.4-5.6-15.6-8.2c-1.8-0.9-2.3-2-1.8-3.6c0.8-2.4-0.3-3.8-2.2-4.5C107.8,49.2,106.5,46.5,104.9,43.9z"/>
    <path class="st90" d="M118,173.1c0.9,0,1.8,0,2.7,0c2.8,0,3,0.4,1.8,2.9c-1.4,3-8.7,4.4-11.1,2.1c-0.9-0.8-0.4-1.7,0-2.5
      c0.4-1,0.2-2.5,1.9-2.5C114.9,173.1,116.5,173.1,118,173.1z"/>
    <path class="st91" d="M124.9,176.8c0.8-1-1-3.1,1.4-3.2c0.6,0,1.6-0.1,1.6,0.6C127.9,176,126,176,124.9,176.8z"/>
    <path class="st92" d="M109.1,176.7c-1.3-0.8-1.9-1.7-2.4-2.9c1.1-0.4,2.1-0.3,3.1-0.1C110,174.8,109.2,175.5,109.1,176.7z"/>
    <path class="st7" d="M175.8,20.9c2.3,0.3,4.6,0.3,6.6,1.6c-2.1,0.2-4-1-6.1-1c-0.2,0-0.4,0-0.5,0c-0.1-0.1-0.2-0.3-0.1-0.4
      C175.7,21,175.8,20.9,175.8,20.9z"/>
    <path class="st7" d="M182.4,22.6c0.9,0.1,1.8,0.2,2.6,0.4C183.9,24.5,183.2,23.3,182.4,22.6z"/>
    <path class="st43" d="M166,17.1c1.5,0.1,2.7,0.8,3.8,1.7c0.6,0.5,1.4,0.7,2,1.3c0.1,0.1,0.1,0.2,0.2,0.3c0,1.2-1.1,1.1-1.7,1.4
      c-0.8,0.4-1.9,0.4-2.5,1c-2.5,2.8-6.6,2.4-9.3,4.7c-0.9,0.8-2.1,0-3.3,0.4c-5.5,1.8-10.9,3.9-16.4,5.7c-4.7,1.5-9.5,2.4-14.2,3.9
      c-2.4,0.8-4.8,2.1-6.9,3.5c-1.9,1.3-3.7,1.4-5.6,0.5c-1.1-0.5-2.3-0.6-3.5-0.4c-6.4-0.3-12.8,0.6-19-1.6c1-1.1,2.3-0.8,3.5-0.6
      c2.6,0.4,5.3,0.9,7.9,0.8c2.3,0.1,4.7-0.5,7,0c1,0.2,2-0.2,2.9-0.7c6.2-3.1,12.9-4.9,19.5-6.8c4.4-1.3,8.7-3.1,13.2-4.3
      c6-1.7,11.9-3.8,17.8-5.8c2-0.7,3.4-2.5,5.4-2.9C167,18.3,165.5,18.1,166,17.1z"/>
    <path class="st68" d="M175.8,20.9c0,0.2,0,0.4,0,0.6c-1.3-0.4-2.5-0.7-3.8-1.1c0,0,0,0,0,0c-0.2-0.1-0.2-0.2-0.2-0.4
      c0.1-0.1,0.1-0.2,0.2-0.2C173.3,20.3,174.5,20.6,175.8,20.9z"/>
    <path class="st93" d="M101.7,40.6c-4.1,0.5-8-1.2-12.1-1c-5.8-0.9-11.6-0.7-17.3-0.7c0-0.2,0-0.3,0-0.5c0.9,0,1.8,0,2.7,0
      c2.7-0.2,5.5-0.5,8.2-0.7c0.3,0,0.6,0,0.9,0c4.9,1.5,8.6-1.1,12.5-3.2c8.6-4.6,17.6-7.9,27.5-8.7c6.7-0.5,13.6-0.6,20.2-1.8
      c4.5-0.8,8.8-2.7,13.1-4.4c2.2-0.9,4.2-2.2,6.4-2.8c0.2,0,0.4,0,0.6,0c2.3,0.8,1.4,2,0.1,2.8c-2,1.2-4,2.5-6.2,3.3
      c-8,2.8-16.4,4.5-24.4,7.4c-1.1,0.4-2.3,0.3-3.5,0.5c-9.6,1.3-18.6,4.4-26.9,9.4C102.8,40.4,102.1,40.1,101.7,40.6z"/>
    <path class="st86" d="M163.8,16.7c-2.4,2.1-5.4,3.2-8.3,4.3c-3.2,1.2-6.4,2.5-9.7,3.4c-2.4,0.6-5,0.6-7.6,0.9
      c-9.3,1.1-18.7,0.6-27.7,3.8c-6,2.1-12.3,4.1-17.3,7.9c-3.3,2.5-6,0.9-9,1.4c0.2-2.4,2.4-3,3.9-4c4.3-2.8,9.1-4.5,13.8-6.4
      c8.3-3.5,16.9-6.1,25.9-6.4c4.4-0.1,8.8-0.5,13.3-0.3c6.4,0.2,12.1-2.5,18-4.5c-0.3-0.7-1-0.7-1.3-1.2c-0.9,0-1.9-0.1-2.8-0.1
      c0.4-0.7,1.2-0.3,1.8-0.6C159.2,15,161.7,15.2,163.8,16.7z"/>
    <path class="st94" d="M101.7,40.6c4.7-3.9,10.5-5.6,16.1-7.7c5-1.9,10.1-2.5,15.2-3.3c2.1-0.3,4.1-1.7,6.3-2.1
      c6.5-1.3,12.5-3.8,18.9-5.4c2.3-0.6,4.3-2.2,6.4-3.3c1.4-0.8,0.6-1.4-0.1-2c0.6-0.2,1.2-0.1,1.6,0.4c0.3,0.2,0.5,0.5,0.8,0.7
      c0.5,0.5,1.8,0.4,1.5,1.5c-0.2,0.8-1.1,0.6-1.8,0.9c-2.6,1.1-5.1,2.5-7.7,3.6c-5.9,2.5-12.1,3.8-18.1,5.9
      c-8.5,2.9-17.2,5.2-25.6,8.2c-2.1,0.7-3.7,2.4-5.9,2.7C106.6,40.8,104.1,39.8,101.7,40.6z"/>
    <path class="st27" d="M172,19.9c0,0.2,0,0.4,0,0.5c-0.8-0.5-1.8-0.6-2.2-1.6C170.6,19,171.4,19.3,172,19.9z"/>
    <path class="st5" d="M43.3,59.7c-0.1-2.3,2.1-3.4,2.8-5.3c1.1-1.2,2.2-2.3,3.4-3.5c0.4-0.4,0.9-0.8,1.4-0.2
      c0.3,0.4-0.1,0.8-0.4,1.2c-2.1,2.5-4.2,5.1-5.7,8.1C44.3,60.2,43.8,60,43.3,59.7z"/>
    <path class="st95" d="M157.8,15.6c1-0.1,1.9,0.3,2.9,0.7c-2.1,2.4-5.3,2.3-7.9,3.5c-4.8,2.1-9.9,2.2-15.1,2.4
      c-6.5,0.3-13.1-0.1-19.6,1.5c-6.8,1.7-13.4,4-19.9,6.7c-4.4,1.8-8.6,3.8-12.4,6.5c-0.6,0.4-1,1-1.5,1.5c0,0-0.3,0-0.3,0l-0.3,0
      c-1.2-0.7-2.6,0.2-3.8-0.5c1.9-2.4,4.3-4,7.2-5c2.5-0.9,4.5-2.9,7.2-3.7c7.9-2.2,15.2-6.1,23.4-7.9c5.7-1.3,11.5-1.8,17.2-2.4
      c1.5-0.2,3.1,0.2,4.5,0.6c2.2,0.6,4.2,0,6.2-0.8c2.3-1,4.8-0.1,7.2-0.8C154.6,17.3,156.3,16.7,157.8,15.6z"/>
    <path class="st86" d="M79.8,37.9c1.3,0.2,2.7-0.5,3.8,0.5c-2.9,0-5.8,0-8.7,0c0.4-0.6,1.1-0.5,1.7-0.5
      C77.7,37.9,78.8,37.9,79.8,37.9z"/>
  </g>
  </svg>