<svg xmlns="http://www.w3.org/2000/svg" xmlns:xlink="http://www.w3.org/1999/xlink" version="1.1" x="0px" y="0px" viewBox="0 0 100 125" enable-background="new 0 0 100 100" xml:space="preserve"><g><rect x="55.519" y="50.97" transform="matrix(0.2588 0.9659 -0.9659 0.2588 94.3437 -14.3444)" width="2" height="6.667"/><rect x="40.148" y="53.303" transform="matrix(-0.9659 -0.2588 0.2588 -0.9659 71.426 118.0099)" width="6.667" height="2"/><rect x="48" y="63" width="4" height="2"/><path d="M70.902,38.529L70.632,38h-3.587c-3.83-5-10.034-8.743-17.046-8.743S36.784,33,32.954,38h-3.586l-0.27,0.571   c-1.431,3.066-2.157,6.34-2.157,9.736c0,0.555,0.025,1.126,0.078,1.795L27.091,51h1.888C29.374,63,38.638,71.318,50,71.318   S70.626,63,71.021,51h1.888l0.072-0.9c0.052-0.669,0.078-1.181,0.078-1.736C73.059,44.969,72.333,41.596,70.902,38.529z    M29.923,53.628c0.16-0.935,0.405-1.844,0.722-2.844c0.072,0,0.149-0.123,0.23-0.26c-0.077,0.185-0.161,0.348-0.23,0.538   c-0.317,0.867-0.561,1.764-0.721,2.699l-0.184,1.065l-0.016,0.14L29.725,55h-0.003L29.923,53.628z M50,69.34   c-8.894,0-16.362-6.123-18.454-14.374c0.017-0.001,0.033-0.039,0.05-0.04c2.032-0.084,3.984-0.604,5.764-1.419   c0.427-0.196,0.843-0.418,1.249-0.649c0.912-0.521,1.772-0.98,2.55-1.665C41.281,51.084,41.399,51,41.517,51h0.958   c0.022,0,0.044,0.004,0.066,0.004c0.017,0,0.033-0.004,0.05-0.004h26.43C68.627,61,60.259,69.34,50,69.34z M36.731,45.908   c0.063,0.09,0.125,0.185,0.196,0.27l1.05,1.245l0.648-0.7l0.001,0.002l-0.644,0.698l-2.757,2.991l3.424-2.195l0.95,1.132   c0.07,0.083,0.156,0.145,0.232,0.221l0,0c-2.07,1.814-4.76,3.032-7.666,3.295C32.927,50.074,34.587,47.637,36.731,45.908z    M45.814,44.136c0.65,0.775,0.548,1.935-0.226,2.585l-1.872,1.57c-0.743,0.624-1.963,0.515-2.584-0.226l-2.661-3.172   c-0.313-0.373-0.462-0.848-0.419-1.339c0.042-0.49,0.271-0.933,0.645-1.246l1.872-1.57c0.327-0.275,0.745-0.426,1.176-0.426   c0.548,0,1.061,0.238,1.409,0.652L45.814,44.136z M71.043,49H46.326l0.548-0.603c0.95-0.797,1.401-2.033,1.349-3.186   c-0.001-0.017-0.005-0.069-0.006-0.086c-0.04-0.696-0.269-1.397-0.695-1.998c-0.061-0.085-0.107-0.186-0.176-0.267l-1.071-1.28   l2.614-2.838l-3.246,2.08l-0.958-1.142c-0.075-0.089-0.167-0.157-0.249-0.239c-0.506-0.503-1.127-0.865-1.818-1.025   c-0.284-0.066-0.576-0.104-0.874-0.104c-0.9,0-1.775,0.317-2.461,0.894l-0.931,0.781l-0.94,0.789   c-0.782,0.656-1.294,1.581-1.383,2.604C36.02,43.469,36,43.556,36,43.644c0,0.014,0,0.029,0,0.043c0,0.055,0.031,0.11,0.033,0.164   c0,0.011-0.004,0.022-0.003,0.034c-1.823,1.33-3.365,3.096-4.47,5.159c-0.134,0.25-0.26,0.651-0.383,0.908   C31.298,49.624,31.424,49,31.556,49h-2.599c-0.01,0-0.016-0.476-0.016-0.712c0-2.889,0.575-5.288,1.71-8.288h7.699l0.931-0.788   c0.687-0.577,1.561-0.897,2.461-0.897c0.298,0,0.59,0.042,0.874,0.108C42.769,38.278,42.923,38,43.081,38h-7.6   c3.499-4,8.705-6.743,14.519-6.743S61.021,34,64.519,38H53.697c0.277-1,0.499-1.793,0.645-2.645L54.477,34H53.29   c-3.503,0-6.807,1.252-9.417,3.298c-0.269,0.211-0.539,0.35-0.792,0.575c-0.158,0.14-0.312,0.34-0.463,0.485   c0.69,0.16,1.311,0.55,1.818,1.053c2.065-1.806,4.751-3.008,7.663-3.282c-0.002,0.008-0.005,0.012-0.008,0.02   c-0.766,2.786-2.426,5.226-4.569,6.95c0.002,0.002,0.003,0.004,0.005,0.007c0.423,0.6,0.651,1.286,0.69,1.98   c0.001,0.016,0.005,0.031,0.005,0.047c1.83-1.326,3.374-2.941,4.482-5.005C52.753,40.039,52.793,40,52.839,40h16.509   c1.135,3,1.71,5.399,1.71,8.288C71.059,48.524,71.053,49,71.043,49z M53.369,38.566c-0.147,0.474-0.306,0.863-0.477,1.039   C53.063,39.266,53.222,38.919,53.369,38.566z"/></g></svg>